<?xml version="1.0" encoding="utf-8"?>
<!-- Uploaded to: SVG Repo, www.svgrepo.com, Generator: SVG Repo Mixer Tools -->
<svg version="1.1" id="Uploaded to svgrepo.com" xmlns="http://www.w3.org/2000/svg" xmlns:xlink="http://www.w3.org/1999/xlink" 
	 width="800px" height="800px" viewBox="0 0 64 64" xml:space="preserve">
<style type="text/css">
	.fandom_een{fill:#FF786E;}
	.fandom_twee{fill:#BE5652;}
	.fandom_drie{fill:#BE9148;}
	.fandom_vier{fill:#FFC865;}
	.fandom_elf{fill:#4B322A;}
	.fandom_twaalf{fill:#644638;}
	.fandom_dertien{fill:#AA9991;}
	.fandom_veertien{fill:#EFEAE0;}
	.fandom_vijftien{fill:#3A3A3A;}
	.fandom_zestien{fill:#4D4D4D;}
	.fandom_achttien{fill:#808080;}
	.fandom_negentien{fill:#CCCCCC;}
	.fandom_twintig{fill:#FFFAFA;}
	.st0{fill:#666666;}
	.st1{fill:#6BC4D2;}
	.st2{fill:#508D9B;}
	.st3{fill:#018273;}
	.st4{fill:#8579A3;}
	.st5{fill:#685683;}
	.st6{fill:#00B3AA;}
</style>
<g>
	<g>
		<path class="fandom_een" d="M32,7C18.193,7,7,18.193,7,32h50C57,18.193,45.807,7,32,7z"/>
		<path class="fandom_twee" d="M32,57c13.807,0,25-11.193,25-25H7C7,45.807,18.193,57,32,57z"/>
	</g>
	<g>
		<path class="fandom_vijftien" d="M17.981,8.656c0.521-0.184,0.794-0.755,0.609-1.276l-0.667-1.886
			c-0.184-0.521-0.756-0.793-1.276-0.609l-6.599,2.334C9.527,7.403,9.255,7.975,9.439,8.495l0.667,1.886
			c0.184,0.521,0.756,0.793,1.276,0.609l3.979,11.249c0,0,6.58-2.388,6.599-2.334L17.981,8.656z"/>
		<path class="fandom_achttien" d="M53.281,32.357c-0.207,0.561-2.847,0.103-5.896-1.024s-5.353-2.495-5.145-3.056
			c0.207-0.561,2.847-0.103,5.896,1.024S53.488,31.795,53.281,32.357z M39.82,6.383c-3.164,0.743-5.619,1.818-5.482,2.4
			c0.137,0.582,2.813,0.452,5.977-0.291c3.164-0.743,5.619-1.818,5.482-2.4C45.66,5.51,42.984,5.64,39.82,6.383z"/>
		<path class="fandom_zestien" d="M21.96,19.904L17.981,8.656c0.521-0.184,0.794-0.755,0.609-1.276l-0.667-1.886
			c-0.184-0.521-0.756-0.793-1.276-0.609l-3.322,1.167l5.335,15.02C18.714,21.052,21.941,19.85,21.96,19.904z"/>
		<path class="fandom_twaalf" d="M16.254,36.732l-1.174-3.291c-0.457-1.291-0.488-2.71-0.003-3.99
			c0.929-2.452,0.938-5.363,0.938-5.363l6.599-2.334c0,0,1.837,2.259,4.101,3.581c1.182,0.69,2.05,1.814,2.507,3.104l1.156,3.297
			C31.028,34.835,18.154,39.644,16.254,36.732z M38.902,55.836c0,0-4.6-13.022-4.605-13.017c0.418,3.354-12.436,7.788-14.102,5.024
			c-0.006,0.002,4.583,12.988,4.583,12.988C26.063,63.755,39.75,58.95,38.902,55.836z"/>
		<path class="fandom_dertien" d="M20.305,37.489c-2.113,0.291-3.698,0.045-4.051-0.757l3.918,11.077
			c0.352,0.801,1.933,1.048,4.042,0.759L20.305,37.489z"/>
		<path class="fandom_veertien" d="M34.296,42.814c0,0-3.908-11.081-3.918-11.077c0.515,1.893-5.2,5.083-10.072,5.756l3.907,11.073
			C29.158,47.889,34.806,44.689,34.296,42.814z"/>
		<path class="fandom_elf" d="M20.339,37.489c-2.113,0.291-3.732,0.045-4.085-0.757l-1.174-3.291
			c-0.457-1.291-0.488-2.71-0.003-3.99c0.929-2.452,0.938-5.363,0.938-5.363l3.272-1.157c-0.135,0.497-1.572,6.135-0.337,10.343
			L20.339,37.489z M24.214,48.568c-2.077,0.285-3.635,0.047-4.019-0.725c-0.006,0.002,4.583,12.988,4.583,12.988
			c0.357,0.812,1.885,1.144,4.124,0.747L24.214,48.568z"/>
		<path class="fandom_negentien" d="M47.309,40.655c-0.042-0.027-0.091-0.046-0.146-0.055l-1.094-0.179
			c-0.258-0.042-0.528,0.128-0.618,0.354l-0.416,1.037c-0.05,0.124-0.04,0.244,0.017,0.336l-0.625-1.022
			c-0.056-0.092-0.066-0.212-0.017-0.336l0.416-1.037c0.093-0.231,0.365-0.395,0.618-0.354l1.094,0.179
			c0.103,0.017,0.195,0.07,0.251,0.161l0.625,1.022C47.387,40.718,47.351,40.682,47.309,40.655z M43.315,14.081
			c-0.082-0.22-0.33-0.395-0.556-0.376c-0.001,0-1.083,0.092-1.098,0.093c-0.093,0.012-0.165,0.052-0.215,0.108l-0.804,0.9
			c0.055-0.061,0.134-0.102,0.233-0.11l1.076-0.091c0.19-0.016,0.377,0.1,0.48,0.235c0.001,0.001,0.377,1.1,0.429,1.266
			c0.04,0.128,0.027,0.267-0.062,0.366l0.804-0.9c0.079-0.089,0.1-0.212,0.072-0.331C43.666,15.205,43.323,14.101,43.315,14.081z
			 M41.721,17.272l-1.085-0.508c-0.095-0.044-0.201-0.039-0.298,0.004l-1.011,0.455c-0.234,0.106-0.371,0.393-0.32,0.637
			l0.225,1.095c0.027,0.131,0.101,0.225,0.199,0.271l1.085,0.508c-0.098-0.046-0.173-0.14-0.199-0.271l-0.225-1.095
			c-0.049-0.238,0.082-0.529,0.32-0.637l1.011-0.455C41.527,17.23,41.636,17.232,41.721,17.272z M37.263,21.236L34.338,8.783
			c0.137,0.582,2.813,0.452,5.977-0.291c3.164-0.743,5.619-1.818,5.482-2.4l2.925,12.453C49.175,20.476,37.716,23.165,37.263,21.236
			z M47.049,17.982c0.001-0.005-1.027-4.388-1.032-4.407c-0.243-1.035-8.79,0.965-8.545,2.007c0.005,0.022,1.035,4.402,1.038,4.406
			C38.938,20.945,47.092,19.03,47.049,17.982z M53.281,32.357l-4.433,11.999c-0.686,1.858-11.729-2.218-11.041-4.08l4.433-11.999
			c-0.207,0.561,2.096,1.929,5.145,3.056C50.434,32.46,53.074,32.918,53.281,32.357z M49.335,38.718
			c0.12-0.325-0.891-1.014-2.415-1.699c0.046,0.128,0.067,0.23,0.028,0.372c-0.002,0.007-0.324,1.11-0.325,1.114
			c-0.001,0.003-0.002,0.007-0.003,0.01c-0.041,0.123-0.124,0.224-0.25,0.257c-0.103,0.027-1.263,0.334-1.161,0.304
			c-0.082,0.023-0.174,0.014-0.262-0.034L44,38.524c-0.215-0.117-0.324-0.401-0.251-0.651l0.103-0.351l0,0l0.219-0.752
			c0.043-0.148,0.145-0.247,0.266-0.274c-0.004,0.001,0.762-0.201,0.762-0.201c-2.1-0.734-3.852-1.013-3.997-0.62
			c-0.008,0.021-1.566,4.242-1.566,4.247c-0.071,0.435,1.62,1.429,3.844,2.25c2.223,0.822,4.155,1.166,4.384,0.79
			C47.767,42.959,49.324,38.75,49.335,38.718z"/>
		<path class="fandom_drie" d="M22.614,21.754l-6.599,2.334l-0.654-1.85l6.599-2.334L22.614,21.754z M49.333,38.723l-1.562,4.228
			c-0.002,0.004-0.004,0.008-0.008,0.012c-0.229,0.377-2.16,0.032-4.384-0.79c-2.224-0.822-3.915-1.815-3.844-2.25
			c0-0.005,0-0.01,0.002-0.014l1.562-4.228c0-0.001,0.001-0.002,0.001-0.002c-0.12,0.35,1.048,1.113,2.75,1.843l-0.103,0.351
			c-0.073,0.25,0.037,0.533,0.251,0.651l0.948,0.518c0.088,0.048,0.18,0.058,0.262,0.034c-0.102,0.03,1.058-0.278,1.161-0.304
			c0.126-0.033,0.209-0.134,0.25-0.257c0.001-0.003,0.002-0.007,0.003-0.01C48.108,38.919,49.212,39.028,49.333,38.723z
			 M47.413,40.76l-0.625-1.022c-0.057-0.092-0.149-0.144-0.251-0.161l-1.094-0.179c-0.248-0.04-0.523,0.118-0.618,0.354L44.41,40.79
			c-0.05,0.124-0.04,0.244,0.017,0.336l0.625,1.022c-0.001-0.002-0.002-0.004-0.003-0.006c0.051,0.087,0.141,0.15,0.262,0.17
			l1.094,0.179c0.24,0.039,0.516-0.119,0.611-0.355l0.416-1.037C47.529,40.852,47.352,40.661,47.413,40.76z M47.049,17.982
			c0.042,1.049-8.111,2.963-8.539,2.006c-0.003-0.004-1.037-4.402-1.037-4.402c0.092,0.354,1.455,0.35,3.244,0.031l0.203,0.655
			c0.077,0.248,0.325,0.424,0.569,0.404c0.249-0.021,1.169-0.038,1.314-0.208c-0.002,0.002-0.003,0.004-0.004,0.006l0.804-0.9
			c0.086-0.096,0.101-0.227,0.066-0.352c-0.004-0.013-0.091-0.294-0.095-0.307c1.502-0.478,2.512-1.009,2.443-1.335
			C46.018,13.579,47.05,17.977,47.049,17.982z M42.147,18.639l-0.225-1.095c-0.028-0.136-0.108-0.233-0.211-0.277
			c0.003,0.001,0.007,0.003,0.01,0.004l-1.085-0.508c-0.096-0.045-0.203-0.038-0.298,0.004l-1.011,0.455
			c-0.23,0.104-0.371,0.389-0.32,0.636l0.225,1.095c0.027,0.131,0.101,0.225,0.199,0.271l1.085,0.508
			c-0.002-0.001-0.004-0.002-0.006-0.003c0.09,0.045,0.201,0.047,0.312-0.003l1.011-0.455
			C42.055,19.173,42.198,18.889,42.147,18.639z"/>
		<path class="fandom_vier" d="M49.335,38.718c-0.114,0.31-1.222,0.203-2.712-0.214c0.001-0.004,0.323-1.107,0.325-1.114
			c0.039-0.141,0.018-0.243-0.028-0.372C48.444,37.704,49.455,38.393,49.335,38.718z M44.07,36.77
			c0.043-0.148,0.145-0.247,0.266-0.274c-0.004,0.001,0.762-0.201,0.762-0.201c-2.1-0.734-3.852-1.013-3.997-0.62
			c-0.129,0.348,1.041,1.114,2.749,1.846L44.07,36.77z M46.017,13.575c-0.243-1.035-8.79,0.965-8.545,2.007
			c0.084,0.357,1.45,0.355,3.245,0.034l-0.137-0.443c-0.046-0.147-0.016-0.285,0.07-0.375c-0.002,0.003-0.005,0.005-0.008,0.008
			l0.804-0.9c0.06-0.068,0.142-0.102,0.233-0.11l1.076-0.091c0.238-0.021,0.494,0.169,0.569,0.404l0.25,0.805
			C45.082,14.433,46.094,13.901,46.017,13.575z M19.287,22.931l3.327-1.177l-0.654-1.85l-3.3,1.167
			C18.66,21.072,19.294,22.908,19.287,22.931z"/>
		<path class="fandom_twintig" d="M47.163,40.6c0.24,0.039,0.363,0.262,0.268,0.499l-0.416,1.037
			c-0.095,0.236-0.371,0.394-0.61,0.355l-1.094-0.179c-0.247-0.04-0.371-0.264-0.276-0.5l0.416-1.037
			c0.095-0.236,0.371-0.394,0.618-0.354L47.163,40.6z M44.58,36.536c-0.215-0.117-0.439-0.007-0.51,0.235l-0.322,1.103
			c-0.073,0.25,0.037,0.533,0.251,0.651l0.948,0.518c0.208,0.113,0.437,0.015,0.51-0.235l0.322-1.103
			c0.07-0.241-0.044-0.537-0.251-0.651L44.58,36.536z M40.875,14.696c-0.244,0.021-0.37,0.237-0.296,0.477l0.34,1.097
			c0.077,0.248,0.325,0.425,0.569,0.404l1.076-0.091c0.236-0.02,0.373-0.229,0.296-0.477l-0.34-1.097
			c-0.075-0.24-0.333-0.424-0.569-0.404L40.875,14.696z M40.413,17.731c-0.229,0.103-0.372,0.387-0.32,0.637l0.225,1.095
			c0.051,0.249,0.277,0.368,0.506,0.265l1.011-0.455c0.221-0.1,0.364-0.384,0.313-0.633l-0.225-1.095
			c-0.051-0.25-0.277-0.368-0.498-0.268L40.413,17.731z"/>
	</g>
</g>
</svg>