<?xml version="1.0" encoding="utf-8"?><!-- Uploaded to: SVG Repo, www.svgrepo.com, Generator: SVG Repo Mixer Tools -->
<svg width="800px" height="800px" viewBox="0 0 32 32" fill="none" xmlns="http://www.w3.org/2000/svg">
<path d="M22.9996 7H12.9996H7.00061L11.2406 11.24L18.0006 18L28.9996 7H22.9996Z" fill="#FFC44D"/>
<path d="M13 7H7L11.24 11.24C10.16 12.33 8.66 13 7 13C3.69 13 1 10.31 1 7C1 3.69 3.69 1 7 1C10.31 1 13 3.69 13 7Z" fill="#FFE6EA"/>
<path d="M11 30.9998H25M18 30.9998V17.9998L29 6.99981H7.00002L16 15.9998M12.2051 4.01351C11.1701 2.21251 9.22612 0.999512 7.00012 0.999512C3.68612 0.999512 1.00012 3.68651 1.00012 6.99951C1.00012 10.3135 3.68612 12.9995 7.00012 12.9995C8.65612 12.9995 10.1561 12.3275 11.2421 11.2425M29 0.999812L23 6.99981" stroke="#000000" stroke-width="2" stroke-linecap="round" stroke-linejoin="round"/>
</svg>