<?xml version="1.0" encoding="iso-8859-1"?>
<!-- Uploaded to: SVG Repo, www.svgrepo.com, Generator: SVG Repo Mixer Tools -->
<svg height="800px" width="800px" version="1.1" id="Layer_1" xmlns="http://www.w3.org/2000/svg" xmlns:xlink="http://www.w3.org/1999/xlink" 
	 viewBox="0 0 512 512" xml:space="preserve">
<g>
	<path style="fill:#DCE0E2;" d="M53.65,256.001c0-17.504,2.172-34.494,6.243-50.734H15.984C7.157,205.267,0,213.629,0,223.942
		v63.263c0,10.313,7.157,18.674,15.984,18.674h43.7C55.752,289.899,53.65,273.198,53.65,256.001z"/>
	<path style="fill:#DCE0E2;" d="M496.018,205.267h-41.632c4.069,16.239,6.248,33.23,6.248,50.734c0,17.195-2.1,33.897-6.035,49.878
		h41.42c8.829,0,15.982-8.361,15.982-18.674v-63.263C512,213.629,504.845,205.267,496.018,205.267z"/>
</g>
<path style="fill:#7E7E82;" d="M462.778,250.247c-0.016-0.531-0.043-1.057-0.061-1.587c-0.048-1.368-0.1-2.735-0.174-4.096
	c-0.037-0.672-0.085-1.342-0.128-2.015c-0.078-1.217-0.161-2.431-0.258-3.64c-0.059-0.718-0.124-1.435-0.191-2.152
	c-0.107-1.162-0.219-2.323-0.346-3.479c-0.078-0.73-0.163-1.459-0.25-2.187c-0.137-1.144-0.283-2.286-0.44-3.425
	c-0.098-0.718-0.196-1.436-0.301-2.152c-0.171-1.165-0.356-2.326-0.548-3.485c-0.111-0.673-0.217-1.35-0.335-2.021
	c-0.217-1.248-0.454-2.49-0.693-3.731c-0.111-0.571-0.213-1.144-0.328-1.714c-0.322-1.592-0.666-3.176-1.022-4.754
	c-0.048-0.21-0.091-0.424-0.139-0.634c-0.415-1.806-0.857-3.603-1.32-5.393c-0.109-0.421-0.228-0.837-0.339-1.257
	c-0.356-1.345-0.721-2.687-1.104-4.021c-0.174-0.609-0.361-1.213-0.541-1.82c-0.339-1.141-0.68-2.281-1.04-3.413
	c-0.209-0.664-0.429-1.326-0.646-1.988c-0.348-1.066-0.702-2.131-1.07-3.19c-0.235-0.683-0.476-1.365-0.72-2.044
	c-0.37-1.038-0.748-2.071-1.135-3.103c-0.255-0.672-0.509-1.347-0.768-2.017c-0.404-1.042-0.817-2.076-1.237-3.109
	c-0.26-0.643-0.52-1.287-0.787-1.928c-0.452-1.081-0.917-2.155-1.387-3.226c-0.255-0.577-0.5-1.158-0.759-1.733
	c-0.561-1.25-1.141-2.491-1.726-3.729c-0.18-0.383-0.354-0.769-0.536-1.15c-0.782-1.628-1.583-3.245-2.406-4.847
	c-0.132-0.258-0.272-0.512-0.406-0.769c-0.689-1.33-1.387-2.654-2.105-3.967c-0.287-0.524-0.582-1.041-0.874-1.56
	c-0.578-1.041-1.161-2.079-1.759-3.109c-0.342-0.588-0.691-1.171-1.04-1.755c-0.565-0.953-1.133-1.903-1.713-2.846
	c-0.374-0.607-0.752-1.21-1.131-1.812c-0.577-0.914-1.159-1.825-1.747-2.729c-0.392-0.6-0.785-1.2-1.183-1.795
	c-0.602-0.905-1.213-1.802-1.829-2.697c-0.397-0.578-0.794-1.153-1.198-1.726c-0.648-0.922-1.309-1.834-1.972-2.746
	c-0.385-0.529-0.766-1.059-1.154-1.583c-0.75-1.008-1.513-2.006-2.281-3c-0.317-0.411-0.628-0.827-0.948-1.235
	c-2.196-2.805-4.463-5.55-6.797-8.235c-0.346-0.398-0.702-0.789-1.052-1.184c-0.824-0.935-1.652-1.867-2.493-2.787
	c-0.437-0.476-0.878-0.945-1.319-1.416c-0.771-0.828-1.548-1.655-2.335-2.472c-0.476-0.493-0.957-0.983-1.437-1.471
	c-0.769-0.782-1.544-1.56-2.324-2.332c-0.498-0.491-0.997-0.979-1.5-1.464c-0.787-0.762-1.583-1.517-2.383-2.268
	c-0.502-0.469-1.002-0.938-1.506-1.401c-0.835-0.767-1.678-1.524-2.527-2.278c-0.481-0.427-0.958-0.858-1.444-1.281
	c-0.933-0.814-1.877-1.614-2.824-2.412c-0.333-0.28-0.659-0.57-0.994-0.848l-0.059-0.041c-8.793-7.306-18.203-13.897-28.13-19.693
	l-0.111-0.077c-0.135-0.078-0.274-0.151-0.406-0.228c-1.745-1.012-3.504-2.002-5.28-2.964c-0.235-0.128-0.474-0.249-0.711-0.376
	c-1.546-0.828-3.102-1.637-4.669-2.428c-0.524-0.264-1.052-0.525-1.581-0.785c-1.387-0.686-2.785-1.355-4.19-2.01
	c-0.467-0.217-0.935-0.441-1.405-0.656c-1.85-0.846-3.713-1.67-5.593-2.462c-0.196-0.082-0.394-0.158-0.589-0.242
	c-1.681-0.702-3.371-1.38-5.074-2.039c-0.545-0.21-1.091-0.416-1.639-0.623c-1.457-0.55-2.919-1.083-4.391-1.601
	c-0.502-0.176-1.002-0.356-1.507-0.531c-1.943-0.667-3.896-1.311-5.866-1.922c-0.152-0.048-0.308-0.09-0.463-0.137
	c-1.804-0.555-3.622-1.083-5.445-1.589c-0.57-0.159-1.139-0.309-1.711-0.463c-1.507-0.404-3.022-0.792-4.541-1.163
	c-0.541-0.132-1.083-0.268-1.624-0.396c-2.021-0.476-4.05-0.929-6.092-1.347c-0.111-0.022-0.219-0.041-0.331-0.063
	c-1.922-0.39-3.854-0.745-5.793-1.081c-0.595-0.102-1.191-0.198-1.786-0.296c-1.546-0.254-3.098-0.489-4.655-0.709
	c-0.58-0.08-1.161-0.166-1.745-0.244c-2.083-0.275-4.174-0.529-6.276-0.741c-0.061-0.007-0.124-0.01-0.185-0.017
	c-2.03-0.204-4.072-0.371-6.12-0.515c-0.622-0.045-1.245-0.079-1.87-0.118c-1.569-0.097-3.143-0.176-4.722-0.238
	c-0.627-0.024-1.252-0.052-1.879-0.071c-2.133-0.065-4.272-0.108-6.42-0.108c0,0,0,0-0.002,0c0,0,0,0-0.002,0
	c-2.148,0-4.285,0.043-6.418,0.108c-0.628,0.02-1.254,0.047-1.88,0.071c-1.578,0.062-3.152,0.141-4.719,0.238
	c-0.624,0.039-1.249,0.073-1.87,0.118c-2.048,0.145-4.089,0.312-6.12,0.515c-0.063,0.007-0.125,0.01-0.185,0.017
	c-2.105,0.213-4.194,0.466-6.279,0.741c-0.582,0.077-1.163,0.163-1.745,0.244c-1.556,0.219-3.109,0.455-4.655,0.709
	c-0.595,0.098-1.191,0.194-1.785,0.296c-1.941,0.336-3.873,0.691-5.796,1.081c-0.109,0.021-0.219,0.041-0.328,0.063
	c-2.044,0.417-4.072,0.87-6.092,1.347c-0.543,0.128-1.083,0.264-1.624,0.396c-1.522,0.371-3.035,0.759-4.543,1.163
	c-0.57,0.154-1.141,0.304-1.709,0.463c-1.827,0.506-3.643,1.034-5.448,1.589c-0.155,0.047-0.308,0.089-0.463,0.137
	c-1.968,0.611-3.921,1.256-5.866,1.922c-0.502,0.174-1.002,0.354-1.507,0.531c-1.469,0.519-2.935,1.051-4.391,1.601
	c-0.545,0.207-1.093,0.412-1.637,0.623c-1.702,0.659-3.394,1.337-5.074,2.039c-0.196,0.082-0.395,0.159-0.591,0.242
	c-1.879,0.792-3.741,1.616-5.593,2.462c-0.47,0.215-0.935,0.439-1.405,0.656c-1.405,0.656-2.8,1.325-4.19,2.01
	c-0.529,0.259-1.054,0.521-1.581,0.785c-1.567,0.79-3.124,1.599-4.667,2.428c-0.238,0.127-0.476,0.248-0.713,0.376
	c-1.776,0.962-3.535,1.952-5.278,2.964c-0.135,0.077-0.274,0.15-0.406,0.228l-0.111,0.077c-9.931,5.796-19.337,12.387-28.13,19.693
	l-0.061,0.041c-0.335,0.278-0.659,0.568-0.993,0.848c-0.946,0.798-1.889,1.598-2.822,2.412c-0.485,0.424-0.963,0.855-1.446,1.281
	c-0.846,0.755-1.69,1.51-2.524,2.278c-0.506,0.463-1.006,0.933-1.507,1.401c-0.8,0.751-1.596,1.506-2.385,2.268
	c-0.502,0.485-1.002,0.973-1.5,1.464c-0.78,0.77-1.554,1.549-2.322,2.332c-0.481,0.489-0.963,0.978-1.437,1.471
	c-0.787,0.816-1.563,1.644-2.337,2.472c-0.439,0.472-0.883,0.941-1.318,1.416c-0.841,0.92-1.67,1.852-2.495,2.787
	c-0.35,0.395-0.705,0.786-1.05,1.184c-2.335,2.686-4.602,5.432-6.8,8.235c-0.319,0.408-0.63,0.825-0.948,1.235
	c-0.766,0.995-1.53,1.991-2.278,3c-0.39,0.524-0.769,1.054-1.154,1.583c-0.663,0.91-1.323,1.824-1.973,2.746
	c-0.402,0.573-0.8,1.149-1.195,1.726c-0.618,0.895-1.229,1.792-1.831,2.697c-0.397,0.595-0.791,1.195-1.183,1.795
	c-0.589,0.905-1.17,1.815-1.745,2.729c-0.378,0.602-0.759,1.205-1.131,1.812c-0.581,0.943-1.15,1.892-1.715,2.846
	c-0.348,0.584-0.696,1.168-1.04,1.755c-0.595,1.03-1.179,2.068-1.759,3.109c-0.289,0.521-0.587,1.037-0.872,1.56
	c-0.718,1.313-1.418,2.636-2.107,3.967c-0.132,0.257-0.274,0.511-0.406,0.769c-0.821,1.603-1.624,3.22-2.406,4.847
	c-0.183,0.381-0.354,0.767-0.536,1.15c-0.584,1.237-1.163,2.479-1.724,3.729c-0.258,0.575-0.506,1.155-0.759,1.733
	c-0.47,1.072-0.937,2.146-1.387,3.226c-0.267,0.641-0.529,1.284-0.789,1.928c-0.42,1.033-0.833,2.067-1.234,3.109
	c-0.26,0.67-0.515,1.343-0.768,2.017c-0.387,1.032-0.766,2.065-1.136,3.103c-0.244,0.679-0.483,1.36-0.72,2.044
	c-0.365,1.059-0.719,2.124-1.07,3.19c-0.215,0.662-0.435,1.323-0.646,1.988c-0.357,1.133-0.7,2.272-1.04,3.413
	c-0.18,0.607-0.365,1.211-0.541,1.82c-0.383,1.335-0.746,2.677-1.102,4.021c-0.114,0.42-0.233,0.836-0.342,1.257
	c-0.463,1.789-0.904,3.586-1.32,5.393c-0.048,0.21-0.089,0.424-0.137,0.634c-0.358,1.578-0.7,3.162-1.023,4.754
	c-0.115,0.57-0.218,1.143-0.327,1.714c-0.242,1.241-0.476,2.483-0.696,3.731c-0.118,0.672-0.224,1.348-0.335,2.021
	c-0.189,1.159-0.374,2.32-0.545,3.485c-0.107,0.716-0.205,1.432-0.302,2.152c-0.155,1.139-0.302,2.281-0.44,3.425
	c-0.087,0.728-0.169,1.457-0.25,2.187c-0.124,1.156-0.239,2.317-0.346,3.479c-0.066,0.717-0.132,1.432-0.191,2.152
	c-0.098,1.21-0.18,2.424-0.258,3.64c-0.041,0.672-0.091,1.341-0.126,2.015c-0.073,1.361-0.128,2.727-0.174,4.096
	c-0.02,0.53-0.048,1.056-0.061,1.587c-0.052,1.913-0.082,3.83-0.082,5.756c0,39.615,11.078,76.643,30.307,108.156l15.51,22.071
	c38.115,47.389,96.579,77.717,162.124,77.717c0.002,0,0.002,0,0.002,0c0.002,0,0.002,0,0.002,0
	c114.842,0,207.943-93.102,207.943-207.943C462.86,254.077,462.83,252.159,462.778,250.247z"/>
<circle style="fill:#A4A4A5;" cx="254.909" cy="256" r="170.774"/>
<path style="opacity:0.15;fill:#202020;enable-background:new    ;" d="M111.388,256.001c0-89.729,69.202-163.289,157.146-170.23
	c-4.494-0.354-9.037-0.54-13.621-0.54c-94.315,0-170.77,76.455-170.77,170.771c0,94.311,76.454,170.77,170.77,170.77
	c4.585,0,9.127-0.186,13.621-0.541C180.59,419.288,111.388,345.727,111.388,256.001z"/>
<path style="fill:#4A4A4C;" d="M434.03,256.001c0-98.766-80.352-179.119-179.118-179.119S75.795,157.234,75.795,256.001
	c0,98.574,80.043,178.802,178.548,179.111c0.048,0,0.095,0.007,0.144,0.007c0.028,0,0.057-0.004,0.085-0.004
	c0.114,0,0.227,0.004,0.342,0.004c15.035,0,29.639-1.872,43.602-5.377c0.392-0.068,0.776-0.161,1.145-0.282
	C376.845,409.535,434.03,339.32,434.03,256.001z M373.918,145.589c-0.008,0.151-0.023,0.301-0.023,0.453v84.123
	c0,4.611,3.736,8.348,8.348,8.348c4.611,0,8.348-3.736,8.348-8.348V166.82c16.894,25.616,26.743,56.268,26.743,89.18
	s-9.85,63.564-26.742,89.178v-65.909c0-4.611-3.738-8.348-8.348-8.348s-8.348,3.736-8.348,8.348v84.514
	c0,0.798,0.118,1.567,0.327,2.298c-7.887,8.542-16.676,16.238-26.218,22.934v-44.032c0-4.611-3.736-8.348-8.348-8.348
	c-4.61,0-8.348,3.736-8.348,8.348v54.31c-8.233,4.408-16.89,8.124-25.892,11.076V293.131V101.628
	c9.001,2.952,17.657,6.668,25.892,11.076v138.74c0,4.611,3.738,8.348,8.348,8.348c4.611,0,8.348-3.736,8.348-8.348V122.982
	C357.425,129.593,366.11,137.179,373.918,145.589z M118.38,168.116v90.351c0,1.841,0.604,3.537,1.613,4.917
	c-1.01,1.38-1.613,3.078-1.613,4.919v75.579c-16.374-25.35-25.889-55.525-25.889-87.883
	C92.492,223.642,102.006,193.467,118.38,168.116z M134.924,365.354c0.097-0.509,0.152-1.033,0.152-1.569v-95.48
	c0-1.841-0.603-3.538-1.613-4.917c1.011-1.38,1.613-3.078,1.613-4.919V148.321c0-0.569-0.058-1.123-0.165-1.658
	c7.83-8.587,16.565-16.335,26.054-23.087v81.694c0,4.611,3.738,8.348,8.348,8.348c4.611,0,8.348-3.736,8.348-8.348v-92.113
	c8.229-4.468,16.887-8.24,25.892-11.248v96.274c0,4.611,3.736,8.348,8.348,8.348s8.348-3.736,8.348-8.348V97.313
	c8.409-1.834,17.055-3.024,25.892-3.497v141.901c0,4.611,3.736,8.348,8.348,8.348c4.61,0,8.348-3.736,8.348-8.348V93.774
	c8.832,0.426,17.478,1.566,25.889,3.355v196.002v121.741c-8.411,1.788-17.057,2.928-25.889,3.355V262.575
	c0-4.611-3.738-8.348-8.348-8.348c-4.611,0-8.348,3.736-8.348,8.348v155.609c-8.835-0.473-17.483-1.662-25.892-3.498v-97.942
	c0-4.611-3.738-8.348-8.348-8.348c-4.611,0-8.348,3.736-8.348,8.348v93.351c-9.006-3.009-17.663-6.781-25.892-11.248V297.928
	c0-4.611-3.736-8.348-8.348-8.348s-8.348,3.736-8.348,8.348v90.497C151.481,381.677,142.75,373.935,134.924,365.354z"/>
<path style="fill:#E95353;" d="M406.58,245.708c-0.705,2.186-1.006,4.448-2.061,6.398l-9.445,29.344l-6.476,20.125
	c-0.415,2.621-1.628,5.053-2.468,7.66c-0.839,2.608-1.27,5.293-2.468,7.662l-0.002,0.013
	c-11.222,22.236-37.861,33.436-62.318,25.562c-27.068-8.713-41.948-37.72-33.235-64.788c4.6-14.29,14.859-25.174,27.502-30.986
	c4.703-2.529,15.3-9.405,21.504-22.526c0.076-0.252,0.136-0.503,0.217-0.755c0.584-1.824,1.304-3.565,2.137-5.226
	c0,0,0.002-0.001,0-0.002c1.091-2.501,4.324-6.647,4.324-6.647c9.196-11.242,24.649-16.323,39.308-11.605
	C402.223,206.093,412.734,226.586,406.58,245.708z"/>
<path style="opacity:0.15;fill:#202020;enable-background:new    ;" d="M307.03,285.371c4.599-14.29,14.859-25.174,27.502-30.986
	c4.703-2.529,15.299-9.405,21.503-22.526c0.076-0.252,0.137-0.503,0.217-0.755c0.585-1.824,1.305-3.565,2.138-5.226
	c0,0,0.001-0.001,0-0.002c1.09-2.501,4.324-6.647,4.324-6.647c7.647-9.348,19.623-14.414,31.871-13.149
	c-3.335-2.65-7.189-4.76-11.484-6.142c-14.659-4.718-30.113,0.363-39.308,11.605c0,0-3.232,4.146-4.324,6.647
	c0.002,0.001,0,0.002,0,0.002c-0.833,1.661-1.553,3.403-2.137,5.226c-0.081,0.252-0.141,0.503-0.217,0.755
	c-6.204,13.121-16.803,19.997-21.504,22.526c-12.643,5.812-22.902,16.696-27.502,30.986c-8.713,27.068,6.167,56.075,33.235,64.788
	c2.068,0.667,4.153,1.185,6.242,1.583C308.831,331.629,299.798,307.839,307.03,285.371z"/>
<circle style="fill:#8C5549;" cx="194.337" cy="255.688" r="77.045"/>
<circle style="fill:#FFF1CE;" cx="337.274" cy="293.131" r="13.861"/>
<g>
	<path style="fill:#A5665B;" d="M226.856,309.238c-1.804,0-3.622-0.581-5.151-1.782l-82.985-65.172
		c-3.625-2.848-4.257-8.095-1.41-11.721c2.847-3.626,8.096-4.256,11.721-1.409l82.985,65.172c3.626,2.848,4.256,8.095,1.409,11.721
		C231.78,308.143,229.329,309.238,226.856,309.238z"/>
	<path style="fill:#A5665B;" d="M246.254,282.236c-1.805,0-3.622-0.581-5.151-1.783l-81.18-63.753
		c-3.626-2.848-4.256-8.095-1.409-11.72c2.847-3.629,8.093-4.257,11.72-1.41l81.179,63.753c3.626,2.848,4.256,8.095,1.409,11.72
		C251.178,281.14,248.728,282.236,246.254,282.236z"/>
	<path style="fill:#A5665B;" d="M245.661,239.535c-1.804,0-3.622-0.581-5.15-1.783l-41.429-32.534
		c-3.626-2.848-4.257-8.096-1.409-11.72c2.848-3.627,8.093-4.258,11.72-1.41l41.429,32.534c3.625,2.848,4.257,8.095,1.41,11.72
		C250.585,238.439,248.135,239.535,245.661,239.535z"/>
	<path style="fill:#A5665B;" d="M187.883,320.864c-1.804,0-3.622-0.581-5.15-1.783l-47.706-37.464
		c-3.626-2.848-4.258-8.095-1.411-11.72c2.847-3.625,8.095-4.258,11.721-1.41l47.706,37.464c3.626,2.848,4.256,8.095,1.409,11.72
		C192.807,319.768,190.356,320.864,187.883,320.864z"/>
</g>
<path style="opacity:0.15;fill:#202020;enable-background:new    ;" d="M135.529,255.683c0-39.463,29.678-71.976,67.927-76.491
	c-2.993-0.353-6.032-0.555-9.118-0.555c-42.551,0-77.046,34.494-77.046,77.046c0,42.552,34.495,77.047,77.046,77.047
	c3.086,0,6.126-0.203,9.118-0.555C165.207,327.66,135.529,295.146,135.529,255.683z"/>
</svg>