<?xml version="1.0" encoding="UTF-8"?>
<svg width="800px" height="800px" version="1.1" viewBox="0 0 500.8 500.8" xml:space="preserve" xmlns="http://www.w3.org/2000/svg">
<path d="m499.2 235.08h-499.2l77.6 180.8v0.8c0 23.2 76.8 41.6 170.4 41.6 94.4 0 171.2-18.4 171.2-41.6v-1.6l80-180z" fill="#FCF7C5"/>
<path d="M250.4,457.479c94.4,0,169.6-18.4,169.6-40.8c0,0-0.8-0.8-0.8-1.6l81.6-180H1.6" fill="#EFE5AB"/>
<ellipse cx="250.4" cy="235.08" rx="250.4" ry="60.8" fill="#E2D998"/>
<path d="m250.4 174.28c138.4 0 250.4 27.2 250.4 60.8s-112 60.8-250.4 60.8" fill="#C6B96D"/>
<path d="m250.4 207.08c-114.4 0-207.2 22.4-207.2 49.6 0 5.6 3.2 10.4 9.6 15.2 45.6 14.4 116.8 23.2 197.6 23.2s151.2-8.8 197.6-23.2c6.4-4.8 9.6-9.6 9.6-15.2 0-27.2-92.8-49.6-207.2-49.6z" fill="#F47400"/>
<path d="m250.4 295.08c80 0 151.2-8.8 197.6-23.2 6.4-4.8 9.6-9.6 9.6-15.2 0-28-92.8-49.6-207.2-49.6" fill="#F25600"/>
<ellipse cx="333.6" cy="247.08" rx="56" ry="11.2" fill="#FF8B00"/>
<polygon points="215.2 435.08 181.6 379.08 215.2 323.08 281.6 323.08 315.2 379.08 281.6 435.08" fill="#5EA304"/>
<polyline points="217.6 323.08 281.6 323.08 315.2 379.08 281.6 435.08" fill="#357503"/>
<path d="m352 243.08c4.8-16 9.6-32 15.2-49.6 32.8-100 65.6-139.2 32.8-149.6s-29.6 39.2-62.4 139.2c-7.2 21.6-14.4 43.2-21.6 59.2h36v0.8z" fill="#00233F"/>
<ellipse transform="matrix(-.3203 .9473 -.9473 -.3203 575.7 -270.18)" cx="384.77" cy="71.441" rx="21.6" ry="8.8" fill="#262E87"/>
<path d="m136.8 215.08c-35.2 5.6-62.4 13.6-78.4 23.2l-14.4 14.4c-0.8 1.6-0.8 3.2-0.8 4.8 0 5.6 3.2 10.4 9.6 15.2 39.2 12 96.8 20.8 163.2 22.4l-79.2-80z" fill="#F25600"/>
<path d="m116.8 267.08c26.4 0 51.2-29.6 52-55.2 0.8-44.8-39.2-59.2-55.2-96.8" fill="#357503"/>
<path d="m119.2 263.08v0.8l-0.8 0.8c-28-16-51.2-31.2-53.6-56.8-4.8-44.8 32.8-56 48.8-92.8" fill="#5EA304"/>
<path d="m118.4 265.48c8-24 13.6-49.6-2.4-66.4-28-29.6-60-9.6-95.2-23.2" fill="#357503"/>
<path d="m118.4 265.48c-28.8 8-53.6 13.6-72-1.6-32-26.4-11.2-56-26.4-88.8" fill="#5EA304"/>
<ellipse transform="matrix(-.0417 -.9991 .9991 -.0417 1.1609 440.83)" cx="211.99" cy="219.86" rx="5.6" ry="34.399" fill="#FFA300"/>
</svg>
