<?xml version="1.0" encoding="UTF-8"?>
<svg width="800px" height="800px" viewBox="0 0 500 500" xmlns="http://www.w3.org/2000/svg">
<defs>
<style>.cls-1{fill:none;}.cls-2{isolation:isolate;}.cls-3{fill:#dddcdc;}.cls-4{fill:#828084;}.cls-5{fill:#bfbfbf;}.cls-6{fill:#ffffff;}.cls-7{fill:#fdd8c5;}.cls-8{fill:#b88064;}.cls-9{fill:#db9977;}.cls-10{fill:#fccb57;}.cls-11{fill:#bb7c2b;}.cls-12,.cls-14{fill:#fcf9e4;}.cls-12{opacity:0.2;}.cls-13{fill:#fbad48;}.cls-15{fill:#fcde56;}.cls-16{fill:#ecac21;}.cls-17{clip-path:url(#e);}.cls-18{fill:#fdefa4;}.cls-19{fill:#f68a57;}.cls-20{fill:#974421;}.cls-21{fill:#f9a880;}.cls-22{fill:#bb6339;}.cls-23{clip-path:url(#d);}.cls-24{clip-path:url(#c);}.cls-25{fill:#e84344;}.cls-26{fill:#8f1a1c;}.cls-27{fill:#b33839;}.cls-28{fill:#f58d90;}.cls-29{fill:#6fa341;}.cls-30{fill:#364a21;}.cls-31{fill:#83bf4b;}.cls-32,.cls-37{fill:#d36740;}.cls-33{fill:#a93924;}.cls-34{fill:#c4542d;}.cls-35{clip-path:url(#b);}.cls-36{fill:#faae79;}.cls-37{opacity:0.4;mix-blend-mode:multiply;}.cls-38{clip-path:url(#a);}</style>
<clipPath id="e">
<path class="cls-1" d="m131.15 227.3s-4.24 22.85 12.69 27.93c0 0-16.93 25.38 5.08 34.69 0 0-0.85 25.39 20.3 28.77 0 0 4.23 31.31 35.54 28.77 0 0 7.62 16.92 26.23 3.39 0 0 25.39 13.53 33.85-11.85 0 0 15.23-1.69 17.77-16.92 0 0 9.31 5.92 11.85-16.08 0 0 13.54 3.38 16.92-22.85 0 0 14.39-11.84 8.46-35.54 0 0 19.47-8.46 5.08-29.61 0 0 5.92-22-11-32.16 0 0-9.31-31.31-38.92-24.54 0 0 0.84-13.54-11.85-5.92 0 0-8.46-15.23-36.39-6.77s-89.69 55.85-95.61 78.69z"/>
</clipPath>
<clipPath id="d">
<path class="cls-1" d="m83 239.67c-8-11-4.77-27.1 7.3-35.9 0 0 43.17-38.59 80.22-65.63 46.55-34 85.08-55 85.08-55 12.07-8.81 28.37-7 36.41 4 8 11 4.78 27.09-7.29 35.9a988.26 988.26 0 0 0-85.08 55c-39 28.42-80.22 65.63-80.22 65.63-12.07 8.8-28.37 7-36.42-4z"/>
</clipPath>
<clipPath id="c">
<path class="cls-1" d="m50.71 201.73c-8-11-4.78-27.1 7.29-35.9 0 0 43.18-38.6 80.23-65.63 46.55-34 85.08-55 85.08-55 12.07-8.8 28.37-7 36.41 4 8 11 4.78 27.09-7.29 35.89a989.83 989.83 0 0 0-85.08 55c-38.95 28.42-80.23 65.63-80.23 65.63-12.07 8.8-28.37 7-36.41-4z"/>
</clipPath>
<clipPath id="b">
<path class="cls-1" d="m323.53 96.82-39.92 25s0.14 24.19 20.46 46 27.65 25.75 31.83 45.18 6.26 28.77 26 44.29 38.94 31.1 36.82 66.31c0 0 21.76-6.3 41.17-32.78 0 0-4-32.78-28.47-50.45s-24.85-22.74-31.31-46.4c-6.62-24.25-12-28.92-26.35-40.44s-33.05-37.36-30.23-56.71z"/>
</clipPath>
<clipPath id="a">
<path class="cls-1" d="m350.51 54.41-39.91 25s0.13 24.19 20.45 46 27.65 25.69 31.84 45.07 6.25 28.77 26 44.3 38.93 31.09 36.81 66.3c0 0 21.76-6.3 41.18-32.78 0 0-4.05-32.77-28.47-50.45s-24.86-22.74-31.32-46.39c-6.62-24.26-12-28.92-26.35-40.45s-33.05-37.25-30.23-56.6z"/>
</clipPath>
</defs>
<title>Big Breakfast</title>
<g class="cls-2">
<g data-name="Layer 1">
<circle class="cls-3" cx="249.19" cy="252.69" r="220.01"/>
<path class="cls-4" d="m249.19 32.68c121.5 0 220 98.5 220 220s-98.5 220-220 220-220-98.5-220-220 98.5-220 220-220m0-5c-124.07 0-225 100.93-225 225s100.93 225 225 225 225-100.94 225-225-100.94-225-225-225z"/>
<path class="cls-5" d="M249.19,427c-96.12,0-174.32-78.19-174.32-174.31S153.07,78.38,249.19,78.38,423.5,156.57,423.5,252.69,345.31,427,249.19,427Z"/>
<path class="cls-6" d="M467.78,228c.05,1.87.14,3.73.14,5.62,0,121.51-98.5,220-220,220-113.17,0-206.33-85.46-218.6-195.35,3,118.9,100.25,214.39,219.87,214.39,121.5,0,220-98.5,220-220A220.69,220.69,0,0,0,467.78,228Z"/>
<path class="cls-7" d="M279.68,364c5.59-7.07,15.91-15.71,20.87-20.46s6-2.36,8.34-.19,15.09,16,15.09,16-4.57-7.56,6.86-12.17,19.53,1,20.24,19.61-9.36,41.54-35.5,46.91c-23,4.73-32.87-.61-33.91-9.45-1.26-10.74,5.35-17.07,12.38-13.8,0,0-10.86-10.32-13.91-13S275,370,279.68,364Z"/>
<path class="cls-8" d="M305.17,340.81c1.47,0,2.39,1.32,3.72,2.56,2.32,2.17,15.09,16,15.09,16s-4.57-7.56,6.86-12.17a18.79,18.79,0,0,1,7-1.52c7.65,0,12.71,6.62,13.27,21.13.72,18.56-9.36,41.54-35.5,46.91a76.61,76.61,0,0,1-15.18,1.76c-12.31,0-18-4.63-18.73-11.21-1-8.82,3.24-14.66,8.69-14.66a8.81,8.81,0,0,1,3.69.86s-10.86-10.32-13.91-13S275,370,279.68,364c5.59-7.07,15.91-15.71,20.87-20.46,2.11-2,3.52-2.75,4.62-2.75m0-3.81h0c-2.91,0-5.41,2-7.26,3.81-1.27,1.22-2.91,2.71-4.73,4.36-5.42,4.91-12.16,11-16.48,16.49-6.15,7.79-3.35,14.93.93,18.68,1.38,1.22,4.47,4.1,7.38,6.83a12.26,12.26,0,0,0-3.29,2.63c-3.18,3.58-4.54,8.88-3.83,14.92.51,4.38,3.74,14.58,22.51,14.58a80.67,80.67,0,0,0,15.94-1.84c27.76-5.71,39.37-29.62,38.55-50.79-.83-21.57-11.06-24.79-17.08-24.79a22.46,22.46,0,0,0-8.39,1.8c-4.11,1.65-7,3.89-8.64,6.65-3.7-4-8-8.5-9.29-9.74-.24-.22-.46-.45-.67-.66-1.15-1.17-2.89-2.93-5.65-2.93Z"/>
<path class="cls-9" d="M302.31,342.6c2.32,2.17,21.76,22.7,21.76,22.7a7.35,7.35,0,0,1-.2-6.54c-3.45-3.7-13.83-14.32-15-15.39-2.07-1.93-3.16-4-6.89-1.07Z"/>
<path class="cls-9" d="m335.79 345.91c5 2.29 8.27 8.77 8.71 20.14 0.72 18.57-9.36 41.54-35.5 46.91a71.85 71.85 0 0 1-16.52 1.72c5.41 1.26 13 1.13 23.1-0.95 26.14-5.37 36.22-28.35 35.5-46.91-0.6-15.74-6.54-22.11-15.29-20.91z"/>
<path class="cls-6" d="m326 350.22c-6.91 4.66-1.94 15.08-1.94 15.08-1.23-5.23 1.94-15.08 1.94-15.08z"/>
<path class="cls-6" d="m321.35 403.89c5.76-1.45 15.83-14.34 15.74-17.83-0.09-5.56-21.5 19.29-15.74 17.83z"/>
<path class="cls-6" d="m306.92 407.32c-4.35-0.77-15.93-0.18-11.59 2.48s16.47-1.63 11.59-2.48z"/>
<path class="cls-6" d="m337.28 350.79c-4.68-2.17-1.55 17.89 1.37 17.38s1.2-16.17-1.37-17.38z"/>
<path class="cls-7" d="m335.42 306.65c9-0.77 22.34 0.83 29.2 1.2s5.84 2.78 5.85 5.95-1.34 22-1.34 22 2.39-8.51 13.57-3.33 12.61 14.94-0.44 28.18-36.68 21.61-58.5 6.23c-19.2-13.53-22.06-24.37-16.32-31.18 7-8.27 16.1-7.79 18.53-0.43 0 0 0.09-15-0.05-19s1.89-8.97 9.5-9.62z"/>
<path class="cls-8" d="M340.93,306.44c8.31,0,18.13,1.11,23.69,1.41,6.85.36,5.84,2.78,5.85,5.95s-1.34,22-1.34,22a7.26,7.26,0,0,1,7.1-5,15.56,15.56,0,0,1,6.47,1.67c11.19,5.17,12.61,14.94-.44,28.18-8.06,8.18-20.18,14.51-33.42,14.51a43,43,0,0,1-25.08-8.28c-19.2-13.53-22.06-24.37-16.32-31.18,3.47-4.13,7.49-6.08,10.95-6.08a7.74,7.74,0,0,1,7.58,5.65s.09-15-.05-19,1.89-8.89,9.5-9.54c1.7-.15,3.57-.21,5.51-.21m0-3.81c-2.16,0-4.13.08-5.83.22-9.89.85-13.17,7.79-13,13.47.06,1.84.08,6.07.07,10.06a11.86,11.86,0,0,0-3.8-.6c-4.84,0-9.89,2.7-13.86,7.42a14.55,14.55,0,0,0-3.4,11.51c1,7.91,7.9,16.4,20.44,25.24a46.6,46.6,0,0,0,27.27,9c13,0,26.48-5.84,36.14-15.64,7.94-8.06,11.36-15.49,10.17-22.08-.65-3.59-3.06-8.62-10.85-12.23a19.47,19.47,0,0,0-8.07-2,11.93,11.93,0,0,0-2.69.29c.36-5.43.74-11.64.74-13.45,0-.32,0-.64,0-.94.15-4.1-.86-8.35-9.48-8.81-1.77-.09-4-.27-6.42-.46-5.21-.42-11.69-.95-17.47-.95Z"/>
<path class="cls-9" d="m366.52 308.48c0 3.17-1.64 31.4-1.64 31.4a7.34 7.34 0 0 1 4.63-4.63c0.33-5.05 1-19.88 1-21.45 0-2.83 0.76-5.05-3.94-5.75-0.04 0.14-0.05 0.28-0.05 0.43z"/>
<path class="cls-9" d="m387 335.15c1.79 5.24-0.73 12-8.71 20.13-13.05 13.24-36.69 21.61-58.5 6.24a71.67 71.67 0 0 1-12.56-10.86c2.78 4.8 8.06 10.23 16.5 16.18 21.82 15.38 45.46 7 58.5-6.23 11.09-11.22 11.67-19.91 4.77-25.46z"/>
<path class="cls-6" d="m377.2 331c-8.13-1.84-12.32 8.92-12.32 8.92 2.96-4.53 12.32-8.92 12.32-8.92z"/>
<path class="cls-6" d="m334.89 364.32c5 3.2 21.28 1.71 23.77-0.74 3.97-3.9-28.77-2.47-23.77 0.74z"/>
<path class="cls-6" d="m322.51 356.14c-2.42-3.69-10.77-11.74-9.75-6.75s12.47 10.89 9.75 6.75z"/>
<path class="cls-6" d="m384.5 339.57c-1.62-4.9-14.11 11.12-11.73 12.89s12.62-10.19 11.73-12.89z"/>
<path class="cls-7" d="M301,269.19c6.74-6,18.4-12.69,24.11-16.5s6.35-1.27,8.25,1.27,12.06,18.4,12.06,18.4-3.17-8.25,8.88-10.79,19,4.45,16.51,22.85-16.48,39.26-43.16,40c-23.48.64-32.25-6.34-31.73-15.23.63-10.79,8.25-15.86,14.6-11.42,0,0-8.89-12.06-11.43-15.23S295.3,274.27,301,269.19Z"/>
<path class="cls-8" d="m329.69 250.75c1.79 0 2.49 1.6 3.69 3.21 1.91 2.54 12.06 18.4 12.06 18.4s-3.17-8.25 8.88-10.79a22.19 22.19 0 0 1 4.49-0.5c9.25 0 14.22 7.37 12 23.35-2.54 18.41-16.48 39.26-43.16 40h-2.91c-21.3 0-29.32-6.75-28.82-15.27 0.48-8.14 4.93-13 9.82-13a8.34 8.34 0 0 1 4.78 1.61s-8.89-12.06-11.43-15.23-3.81-8.25 1.91-13.33c6.74-6 18.4-12.69 24.11-16.5 2.1-1.4 3.51-1.94 4.56-1.94m0-3.81c-1.94 0-4 0.8-6.67 2.58-1.47 1-3.34 2.16-5.43 3.46-6.19 3.89-13.89 8.73-19.1 13.36-7.42 6.59-5.9 14.12-2.35 18.56 1.15 1.44 3.7 4.83 6.09 8-5.05 1.72-9.57 7.15-10.09 16a14.53 14.53 0 0 0 4 11.09c5.14 5.45 14.77 8.21 28.62 8.21h3c28.33-0.77 43.93-22.28 46.83-43.27 1.43-10.37 0.07-18-4-22.72a15.06 15.06 0 0 0-11.76-5 25.62 25.62 0 0 0-5.27 0.59c-4.34 0.91-7.58 2.6-9.67 5-2.95-4.56-6.35-9.77-7.44-11.22-0.2-0.26-0.38-0.52-0.55-0.77-1-1.48-2.74-4-6.19-4z"/>
<path class="cls-9" d="m327 252.05c1.9 2.54 17.45 26.16 17.45 26.16a7.35 7.35 0 0 1 0.95-6.48c-2.75-4.25-11.12-16.52-12.06-17.77-1.7-2.27-2.41-4.5-6.59-2.26 0.12 0.12 0.25 0.24 0.25 0.35z"/>
<path class="cls-9" d="m359.42 261.16c4.57 3.14 6.61 10.09 5.06 21.36-2.54 18.4-16.48 39.26-43.16 40a72.42 72.42 0 0 1-16.55-1.19c5.09 2.18 12.57 3.37 22.9 3.09 26.68-0.72 40.62-21.57 43.16-40 2.17-15.6-2.59-22.91-11.41-23.26z"/>
<path class="cls-6" d="m349 263.69c-7.62 3.38-4.55 14.52-4.55 14.52-0.27-5.37 4.55-14.52 4.55-14.52z"/>
<path class="cls-6" d="m335.07 315.73c5.93-0.42 18.09-11.36 18.62-14.81 0.85-5.5-24.54 15.23-18.62 14.81z"/>
<path class="cls-6" d="m320.27 316.58c-4.16-1.51-15.66-3-11.85 0.42s16.5 1.27 11.85-0.42z"/>
<path class="cls-6" d="m360 266.23c-4.23-3-4.66 17.34-1.7 17.34s4.06-15.71 1.7-17.34z"/>
<path class="cls-10" d="m168.53 366.35-13.5 44c-3 9.78-4.94 17.18 2.64 21.72s79.86 33.31 99.8 18.77 29-58.72 3.69-68.94-69-21.75-77.75-23.28-10.73-1.21-14.88 7.73z"/>
<path class="cls-11" d="M177.52,357.93a36.8,36.8,0,0,1,5.89.71c8.76,1.53,52.48,13.06,77.75,23.28s16.25,54.39-3.69,68.94c-4,2.89-10,4.07-17.18,4.07-28.94,0-76.55-19.19-82.62-22.84-7.58-4.54-5.64-11.94-2.64-21.72l13.5-44c3-6.47,4.87-8.42,9-8.42m0-3.8c-7,0-9.65,4.6-12.44,10.61L165,365l-.08.25-13.5,44c-2.86,9.31-6.09,19.86,4.32,26.11,6.34,3.8,54.83,23.38,84.58,23.38,8.64,0,15-1.58,19.42-4.81,13.69-10,22.63-32.25,20.35-50.7-1.49-12.07-7.7-20.89-17.47-24.84-25.33-10.25-69.54-21.93-78.52-23.5a39.29,39.29,0,0,0-6.55-.76Z"/>
<path class="cls-12" d="m224.42 371s35.4 9.42 36.62 26.38-7.52 39.27-42.12 27.1-61.38-21.06-61.38-21.06-7.51 19-4.31 22.76 85.34 33.29 101.77 22.31 50.32-63.03-30.58-77.49z"/>
<path class="cls-13" d="m272.62 392.2c3.69 17.26-4.75 40.56-18.21 50.39-19.95 14.55-92.23-14.22-99.8-18.76a12.34 12.34 0 0 1-2.17-1.65c-0.15 4.09 1.1 7.44 5.23 9.91 7.58 4.55 79.86 33.31 99.8 18.77 15.79-11.52 24.66-41.56 15.15-58.66z"/>
<path class="cls-14" d="m269.19 402.33c1.56-12.61-16.37-21-12-18.2a22.33 22.33 0 0 1 9 11.24l0.81 6.63c0.78 6.58-5.37 25.15-5.37 25.15s5.99-12.21 7.56-24.82z"/>
<path class="cls-14" d="m167.07 411.51c-2-0.55-5.44 1.63-1.17 3s4.24-2.14 1.17-3z"/>
<path class="cls-14" d="m201.89 427.92c-3.94-2.75-12.73-6.42-8.75-1.54s13.05 4.55 8.75 1.54z"/>
<path class="cls-14" d="m237.43 432.85c3.07 0.86 6.89-0.73 3.19-1.7-2.83-0.74-6.26 0.85-3.19 1.7z"/>
<path class="cls-14" d="m253.38 428.23c-3.09 1.07-0.48 2.87 1.91 1.95 1.71-0.67 1.17-3.02-1.91-1.95z"/>
<path class="cls-14" d="m220.32 438.55c1.77 1 7.41 0 2.83-1.43-2.15-0.68-4.59 0.48-2.83 1.43z"/>
<path class="cls-14" d="m172.87 422.51c-1.36-0.8-3.12-0.54-1.52 1.35s3.86 0.03 1.52-1.35z"/>
<path class="cls-10" d="m180.44 333.92-5.72 45.7c-1.27 10.15-1.9 17.77 6.35 20.94s84.41 19 101.54 1.27 18.39-62.83-8.25-68.54-71.71-9.52-80.6-9.52-10.76 0.63-13.32 10.15z"/>
<path class="cls-11" d="M193.76,323.77c8.89,0,54,3.81,80.6,9.52s25.39,50.77,8.25,68.54c-5.95,6.17-19,8.28-33.87,8.28-28,0-62.28-7.48-67.67-9.55-8.25-3.17-7.62-10.79-6.35-20.94l5.72-45.7c2.53-9.52,4.44-10.15,13.32-10.15m0-3.81c-10.49,0-14,1.7-17,13l-.07.25,0,.26L171,379.14c-1.21,9.66-2.58,20.61,8.75,25,6.35,2.44,40.94,9.81,69,9.81,18.51,0,30.48-3.09,36.61-9.45,11.76-12.19,16.72-35.67,11.3-53.45-3.55-11.63-11.18-19.25-21.49-21.46-26.72-5.72-72.28-9.6-81.4-9.6Z"/>
<path class="cls-12" d="m236.28 328.85s36.49 3.17 40.62 19.67-0.64 40-36.81 34-64.09-10.2-64.09-10.2-4.12 20-0.31 23.16 89.8 18.09 104.08 4.44 38.7-70.76-43.49-71.07z"/>
<path class="cls-13" d="m287.42 341.44c6.61 16.36 2.32 40.77-9.25 52.77-17.17 17.79-93.29 1.91-101.54-1.27a11.93 11.93 0 0 1-2.42-1.25c0.55 4.06 2.37 7.14 6.86 8.87 8.25 3.17 84.41 19 101.54 1.27 13.57-14.07 17.12-45.19 4.81-60.39z"/>
<path class="cls-14" d="m285.78 352c-0.63-12.69-19.74-17.88-14.91-15.87a22.36 22.36 0 0 1 10.79 9.52l1.9 6.35c1.91 6.35-0.95 25.7-0.95 25.7s3.81-13 3.17-25.7z"/>
<path class="cls-14" d="m186.78 378.66c-2-0.2-5.08 2.54-0.63 3.18s3.85-2.84 0.63-3.18z"/>
<path class="cls-14" d="m223.91 388.82c-4.35-2-13.65-4.13-8.89 0s13.65 2.18 8.89 0z"/>
<path class="cls-14" d="m259.76 387.55c3.18 0.32 6.67-1.91 2.86-2.22-2.91-0.25-6.03 1.9-2.86 2.22z"/>
<path class="cls-14" d="m274.68 380.25c-2.86 1.59 0 2.9 2.22 1.59 1.59-0.95 0.63-3.18-2.22-1.59z"/>
<path class="cls-14" d="m243.9 396.12c1.9 0.63 7.3-1.27 2.54-1.91-2.23-0.29-4.44 1.27-2.54 1.91z"/>
<path class="cls-14" d="m194.4 388.5c-1.49-0.56-3.18 0-1.27 1.59s3.81-0.64 1.27-1.59z"/>
<path class="cls-15" d="m131.15 227.3s-4.24 22.85 12.69 27.93c0 0-16.93 25.38 5.08 34.69 0 0-0.85 25.39 20.3 28.77 0 0 4.23 31.31 35.54 28.77 0 0 7.62 16.92 26.23 3.39 0 0 25.39 13.53 33.85-11.85 0 0 15.23-1.69 17.77-16.92 0 0 9.31 5.92 11.85-16.08 0 0 13.54 3.38 16.92-22.85 0 0 14.39-11.84 8.46-35.54 0 0 19.47-8.46 5.08-29.61 0 0 5.92-22-11-32.16 0 0-9.31-31.31-38.92-24.54 0 0 0.84-13.54-11.85-5.92 0 0-8.46-15.23-36.39-6.77s-89.69 55.85-95.61 78.69z"/>
<path class="cls-11" d="M242.33,146.05c15.64,0,20.82,9.33,20.82,9.33,2.79-1.67,4.92-2.33,6.55-2.33,5.81,0,5.3,8.25,5.3,8.25a36.28,36.28,0,0,1,8.09-1c23.25,0,30.83,25.5,30.83,25.5,16.92,10.16,11,32.16,11,32.16,14.39,21.15-5.08,29.61-5.08,29.61,5.93,23.7-8.46,35.54-8.46,35.54-2.69,20.85-11.8,23-15.42,23a6.92,6.92,0,0,1-1.5-.14c-1.65,14.3-6.16,16.8-9.12,16.8a5.57,5.57,0,0,1-2.73-.72C280.07,337.31,264.84,339,264.84,339c-4.09,12.28-12.15,15.45-19.38,15.45a34.7,34.7,0,0,1-14.47-3.6c-5.32,3.86-9.73,5.25-13.34,5.25-9,0-12.89-8.64-12.89-8.64-1.22.1-2.39.15-3.53.15-28.1,0-32-28.92-32-28.92-21.15-3.38-20.3-28.77-20.3-28.77-22-9.31-5.08-34.69-5.08-34.69-16.93-5.08-12.69-27.93-12.69-27.93,5.92-22.84,67.69-70.23,95.61-78.69a53.82,53.82,0,0,1,15.57-2.56m0-5.08a59.4,59.4,0,0,0-17,2.78c-27.88,8.45-92.44,56.76-99.06,82.28l0,.17,0,.18c-1.53,8.27-.85,24,10.61,31.19-2.64,5.53-5.8,14.64-3.28,23.06a21.21,21.21,0,0,0,10.42,12.48c.64,10.12,5.56,25.41,21,29.81,2.88,11.93,13.08,29.76,36.36,29.76H202a19.26,19.26,0,0,0,15.69,8.49c4.41,0,9-1.52,13.85-4.54a38.6,38.6,0,0,0,14,2.9c10.62,0,18.74-5.69,23.14-16.1,6-1.6,14.19-6.12,17.72-15.59,4.67-.41,10.13-3.94,12.53-16.9,5.66-1.09,14.35-6,17.31-25.35,3.81-4,12.94-15.83,9.41-35.49a22.62,22.62,0,0,0,8.93-12c1.88-6.48.47-13.57-4.18-21.11,1.15-6.39,2.76-24.26-12.18-34.48-2.43-6.49-12-27.25-35.05-27.25a37.37,37.37,0,0,0-3.78.19,11.57,11.57,0,0,0-2.54-4.5,9.45,9.45,0,0,0-7.07-3,14.27,14.27,0,0,0-5.23,1.08C260.9,145.56,254,141,242.33,141Z"/>
<path class="cls-16" d="m320.69 204.46a30.63 30.63 0 0 1 4.82 10.41c0.68-4.73 1.1-14-3.91-21.67a39.17 39.17 0 0 1-0.91 11.26z"/>
<path class="cls-16" d="m130.74 235.5c0.24 4.54 1.38 10.07 4.84 14.29a45.25 45.25 0 0 1 4-8.1 16.53 16.53 0 0 1-8.84-6.19z"/>
<path class="cls-16" d="m325.92 219.64c-0.49 10.11-10.31 14.43-10.31 14.43 5.93 23.7-8.46 35.54-8.46 35.54-3.38 26.23-16.92 22.85-16.92 22.85-2.54 22-11.85 16.08-11.85 16.08-2.54 15.23-17.77 16.92-17.77 16.92-8.46 25.39-33.85 11.85-33.85 11.85-18.61 13.54-26.23-3.39-26.23-3.39-31.31 2.54-35.53-28.77-35.53-28.77a21.47 21.47 0 0 1-15.82-10.78c0.84 7.43 4.47 21.83 20.05 24.32 0 0 4.23 31.31 35.54 28.77 0 0 7.62 16.92 26.23 3.39 0 0 25.39 13.53 33.85-11.85 0 0 15.23-1.69 17.77-16.92 0 0 9.31 5.92 11.85-16.08 0 0 13.54 3.38 16.92-22.85 0 0 14.39-11.85 8.46-35.54-0.01 0 18.33-8.05 6.07-27.97z"/>
<path class="cls-16" d="m144.68 276.38a20.42 20.42 0 0 1-6.94-4.64c-0.6 6.23 1.21 12.78 8.93 17a40 40 0 0 1-1.99-12.36z"/>
<path class="cls-16" d="m173.45 280.61s6.35 11.43 17.35 5.93c0 0 0.42 16.07 12.27 17.34 0 0-14 1.7-17.77-12.27 0 0-9.3 2.96-11.85-11z"/>
<path class="cls-16" d="m229.73 273.42s12.26 4.23 17.34-5.92c0 0 13.54 5.07 18.19-7.62 0 0 7.62-0.84 10.58-10.58 0 0-2.54 13.54-9.73 14.39 0 0-2.54 12.27-17.77 9.31 0 0-7.19 5.5-18.61 0.42z"/>
<path class="cls-16" d="m278.8 203.19s19 6.34 15.23 22.84a14 14 0 0 1 5.08 16.08s5.5-12.27-1.69-17.77c0 0 4.23-17.34-18.62-21.15z"/>
<path class="cls-16" d="m278 189.65s-6.35-7.62-14.39-3.81c0 0-3-13.54-13.11-11.85 0 0 10.15-5.07 15.65 7.2-0.04 0 7.58-3.81 11.85 8.46z"/>
<path class="cls-16" d="m291.5 188.8s12.27 1.7 11.84 14.39c0 0 13.12 3.38 10.16 16.08 0 0 8 3.38 2.11 14.8l8 2.12s3.39-14.81-3.81-18.62c0 0-1.27-13.54-11-15.65 0.04 0-2.5-13.92-17.3-13.12z"/>
<path class="cls-16" d="m254.69 339.42s13.54-16.92-8.89-20.31c0 0 15.23-3 19.89 10.58s-5.93 13.54-11 9.73z"/>
<path class="cls-16" d="m277.11 289.5s12.27-5.08 10.16-17.35c0 0 10.57 0.85 10.15-13.54 0 0 4.23 13.12-5.92 16.5 0 0 0.42 13.96-14.39 14.39z"/>
<g class="cls-17">
<path class="cls-16" d="m165 305.15s-18.61-5.5-9.31-29.61c0 0-16.5-14.81-4.65-31.31 0 0-9.31 8.46-14.38-7.2 0 0 18.61-21.57 30.46-17.76 0 0 9.73-21.16 28.77-16.08 0 0 2.54-17.35 16.08-21.58s17.34-3.81 17.34-3.81 8.46-20.31 19-20.73c0 0 5.08-8 10.58-8s-7.62-5.92-9.31-5.92-41.89 9.31-53.31 16.5-43.15 35.54-48.23 40.62-21.16 29.61-21.16 29.61 5.08 16.08 5.93 18.2 6.77 7.61 6.77 7.61-3 10.15-3 13.12 1.26 13.54 3.38 16.5 8.89 4.65 8.89 4.65-2.12 5.08-1.27 8.46 8.1 13.5 17.42 6.73z"/>
</g>
<path class="cls-18" d="m196.3 217.15s-11.42 11.85 0.85 25.39c0 0-8.89 12.69-0.85 19.88s14.39 2.12 14.39 2.12 5.92 20.73 23.69 16.07c0 0-18.62 11-25.81-11 0 0-11.66 2.89-16.92-8-5.5-11.42 2.11-17.34 2.11-17.34s-12.69-15.7 2.54-27.12z"/>
<path class="cls-18" d="m277.11 216.73s8.89 11.84-1.69 16.92c0 0 3.38 9.73-5.08 14.39 0 0 10.16-1.27 9.31-13.12 0 0 11.85-11-2.54-18.19z"/>
<path class="cls-18" d="m260.61 298.38s-7.19 10.16-19 7.62c-0.04 0 11.81 11.42 19-7.62z"/>
<path class="cls-18" d="m227.61 307.69s-9.31 5.08-16.92-2.11c0 0 4.65 14.42 16.92 2.11z"/>
<path class="cls-18" d="m181.07 305.15s4.23 14.81 19 11.85c0 0-3.81 17.77 12.27 18.19 0 0-15.23 2.12-16.93-14.38 0.04 0-13.49 2.11-14.34-15.66z"/>
<path class="cls-18" d="m163.3 232s-12.27 4.23-3.81 18.19c0-0.04-5.49-9.35 3.81-18.19z"/>
<path class="cls-18" d="m247.07 193.88s14.81 0 15.66 14.38c0 0 6.34-17.34-15.66-14.38z"/>
<path class="cls-16" d="m235.65 322.5s-7.62 14-22.85 9.52c0-0.02 13.33 13.33 22.85-9.52z"/>
<path class="cls-19" d="m83 239.67c-8-11-4.77-27.1 7.3-35.9 0 0 43.17-38.59 80.22-65.63 46.55-34 85.08-55 85.08-55 12.07-8.81 28.37-7 36.41 4 8 11 4.78 27.09-7.29 35.9a988.26 988.26 0 0 0-85.08 55c-39 28.42-80.22 65.63-80.22 65.63-12.07 8.8-28.37 7-36.42-4z"/>
<path class="cls-20" d="M272.42,77.57a23.9,23.9,0,0,1,19.6,9.6c8,11,4.78,27.09-7.29,35.9a988.26,988.26,0,0,0-85.08,55c-39,28.42-80.22,65.63-80.22,65.63a28.62,28.62,0,0,1-16.81,5.59A24,24,0,0,1,83,239.67c-8-11-4.77-27.1,7.3-35.9,0,0,43.17-38.59,80.22-65.63,46.55-34,85.08-55,85.08-55a28.53,28.53,0,0,1,16.81-5.59m0-5.08h0a33.38,33.38,0,0,0-19.53,6.37A878.77,878.77,0,0,0,167.54,134c-35.61,26-77.31,63-80.43,65.78a33.29,33.29,0,0,0-13,20.06,28.55,28.55,0,0,0,4.77,22.78,28.91,28.91,0,0,0,23.71,11.68,33.47,33.47,0,0,0,19.8-6.56l.21-.16.19-.17c.42-.37,41.54-37.36,79.82-65.3a990.34,990.34,0,0,1,84.59-54.66l.26-.15.23-.17c14.31-10.44,18.08-29.73,8.4-43a28.87,28.87,0,0,0-23.7-11.68Z"/>
<path class="cls-21" d="m286 116.08a989.83 989.83 0 0 0-85.08 55c-38.92 28.41-80.23 65.62-80.23 65.62-12.06 8.8-28.36 7-36.41-4a23.12 23.12 0 0 1-4.34-14.5c-2.31 7.29-1.51 15.2 3.07 21.49 8 11 24.35 12.81 36.42 4 0 0 41.27-37.21 80.22-65.63a988.26 988.26 0 0 1 85.08-55 27.85 27.85 0 0 0 11.64-21.4 28.41 28.41 0 0 1-10.37 14.42z"/>
<path class="cls-22" d="m90.31 214.77s43.17-38.59 80.22-65.63c46.55-34 85.08-55 85.08-55 12.07-8.81 28.37-7 36.41 4a22.64 22.64 0 0 1 3.73 8.32 23.57 23.57 0 0 0-3.75-19.29c-8-11-24.34-12.82-36.41-4 0 0-38.53 21-85.08 55-37.05 27-80.22 65.63-80.22 65.63-9.28 6.77-13.29 17.81-11 27.58a28.28 28.28 0 0 1 11.02-16.61z"/>
<g class="cls-23">
<path class="cls-21" d="m236.47 118.34c-1.9-0.13-3.64 2.59-3.89 6.09l-4.1 57.6c-0.25 3.5 1.09 6.44 3 6.58s3.64-2.59 3.89-6.09l4.1-57.6c0.23-3.5-1.1-6.44-3-6.58z"/>
<path class="cls-21" d="m199 145.63c-1.9-0.13-3.64 2.59-3.89 6.09l-4.11 57.6c-0.25 3.5 1.09 6.44 3 6.58s3.64-2.59 3.89-6.09l4.09-57.6c0.28-3.5-1.06-6.44-2.98-6.58z"/>
<path class="cls-21" d="m155.87 178.63c-1.9-0.13-3.64 2.59-3.89 6.09l-4.1 57.6c-0.24 3.5 1.1 6.44 3 6.58s3.65-2.59 3.89-6.09l4.1-57.6c0.24-3.5-1.1-6.44-3-6.58z"/>
<path class="cls-22" d="m233.29 120.88c-1.9-0.14-3.64 2.59-3.89 6.09l-4.09 57.6c-0.25 3.5 1.09 6.44 3 6.58s3.64-2.59 3.89-6.09l4.09-57.61c0.24-3.45-1.1-6.45-3-6.57z"/>
<path class="cls-22" d="m195.85 148.17c-1.9-0.14-3.64 2.59-3.89 6.09l-4.09 57.6c-0.25 3.5 1.09 6.44 3 6.58s3.64-2.59 3.89-6.09l4.09-57.61c0.24-3.49-1.1-6.44-3-6.57z"/>
<path class="cls-22" d="m152.69 181.17c-1.89-0.13-3.64 2.59-3.89 6.09l-4.09 57.6c-0.25 3.5 1.09 6.44 3 6.58s3.64-2.59 3.89-6.09l4.09-57.61c0.24-3.49-1.1-6.43-3-6.57z"/>
</g>
<path class="cls-19" d="m50.71 201.73c-8-11-4.78-27.1 7.29-35.9 0 0 43.18-38.6 80.23-65.63 46.55-34 85.08-55 85.08-55 12.07-8.8 28.37-7 36.41 4 8 11 4.78 27.09-7.29 35.89a989.83 989.83 0 0 0-85.08 55c-38.95 28.42-80.23 65.63-80.23 65.63-12.07 8.8-28.37 7-36.41-4z"/>
<path class="cls-20" d="M240.12,39.63a23.91,23.91,0,0,1,19.6,9.6c8,11,4.78,27.09-7.29,35.89a989.83,989.83,0,0,0-85.08,55c-38.95,28.42-80.23,65.63-80.23,65.63a28.55,28.55,0,0,1-16.8,5.58,24,24,0,0,1-19.61-9.59c-8-11-4.78-27.1,7.29-35.9,0,0,43.18-38.6,80.23-65.63,46.55-34,85.08-55,85.08-55a28.56,28.56,0,0,1,16.81-5.58m0-5.08h0a33.38,33.38,0,0,0-19.53,6.37A878.77,878.77,0,0,0,135.24,96.1c-35.61,26-77.32,63-80.44,65.78a33.24,33.24,0,0,0-13,20.05,28.57,28.57,0,0,0,4.77,22.79A28.91,28.91,0,0,0,70.32,216.4a33.49,33.49,0,0,0,19.8-6.56l.21-.16.19-.17c.41-.37,41.54-37.37,79.82-65.3a990.34,990.34,0,0,1,84.59-54.66l.25-.15.24-.17A33.32,33.32,0,0,0,268.59,69a28.53,28.53,0,0,0-4.77-22.79,28.9,28.9,0,0,0-23.7-11.68Z"/>
<path class="cls-21" d="m253.7 78.14a989.83 989.83 0 0 0-85.08 55c-39 28.42-80.23 65.63-80.23 65.63-12.07 8.8-28.37 7-36.41-4a23.12 23.12 0 0 1-4.34-14.5c-2.31 7.29-1.52 15.2 3.07 21.49 8 11 24.34 12.81 36.41 4 0 0 41.28-37.21 80.23-65.63a989.83 989.83 0 0 1 85.08-55 27.78 27.78 0 0 0 11.63-21.39 28.33 28.33 0 0 1-10.36 14.4z"/>
<path class="cls-22" d="m58 176.83s43.18-38.6 80.23-65.63c46.55-34 85.08-55 85.08-55 12.07-8.8 28.37-7 36.41 4a22.57 22.57 0 0 1 3.73 8.32 23.64 23.64 0 0 0-3.73-19.32c-8-11-24.34-12.82-36.41-4 0 0-38.53 21-85.08 55-37 27-80.23 65.63-80.23 65.63-9.27 6.77-13.28 17.81-11 27.58a28.31 28.31 0 0 1 11-16.58z"/>
<g class="cls-24">
<path class="cls-21" d="m204.16 80.4c-1.9-0.13-3.64 2.59-3.89 6.09l-4.09 57.6c-0.25 3.5 1.09 6.44 3 6.58s3.64-2.59 3.89-6.09l4.08-57.58c0.25-3.52-1.09-6.46-2.99-6.6z"/>
<path class="cls-21" d="m166.72 107.69c-1.9-0.14-3.64 2.59-3.89 6.09l-4.09 57.6c-0.25 3.5 1.09 6.44 3 6.58s3.64-2.59 3.89-6.09l4.09-57.61c0.28-3.49-1.1-6.44-3-6.57z"/>
<path class="cls-21" d="m123.56 140.69c-1.89-0.13-3.64 2.59-3.88 6.09l-4.1 57.6c-0.25 3.5 1.09 6.44 3 6.58s3.64-2.59 3.89-6.09l4.09-57.6c0.24-3.5-1.1-6.44-3-6.58z"/>
<path class="cls-22" d="m201 82.94c-1.9-0.14-3.64 2.59-3.89 6.08l-4.11 57.61c-0.25 3.5 1.09 6.44 3 6.58s3.64-2.59 3.89-6.09l4.11-57.61c0.23-3.51-1.11-6.44-3-6.57z"/>
<path class="cls-22" d="m163.55 110.23c-1.9-0.14-3.64 2.59-3.89 6.08l-4.1 57.61c-0.24 3.5 1.09 6.44 3 6.58s3.64-2.59 3.89-6.09l4.1-57.61c0.24-3.49-1.1-6.44-3-6.57z"/>
<path class="cls-22" d="m120.39 143.23c-1.9-0.14-3.64 2.59-3.89 6.09l-4.09 57.6c-0.25 3.5 1.09 6.44 3 6.58s3.64-2.59 3.89-6.09l4.09-57.61c0.24-3.49-1.1-6.44-3-6.57z"/>
</g>
<circle class="cls-25" transform="translate(-20.36 8.66) rotate(-4.13)" cx="109.99" cy="286.96" r="40.62"/>
<path class="cls-26" d="m110 246.33a40.65 40.65 0 1 1-13.92 2.47 40.63 40.63 0 0 1 13.92-2.47m0-5.08a45.71 45.71 0 1 0 42.93 30.05 45.91 45.91 0 0 0-42.93-30.05z"/>
<path class="cls-27" d="m124.09 248.89a40.58 40.58 0 0 1-42.92 66.64 40.6 40.6 0 1 0 42.92-66.64z"/>
<path class="cls-28" d="m96.48 253.61a40.64 40.64 0 0 1 54.09 32.16 40.61 40.61 0 1 0-80.76 7.23 40.61 40.61 0 0 1 26.67-39.39z"/>
<path class="cls-28" d="m79 298.27c-2.5 3.64 3.15 12.36 8.36 11.81s-6.31-14.81-8.36-11.81z"/>
<path class="cls-28" d="M99.9,313.61c7.17-.57,19.85,6.27,12.51,7.14S92,314.23,99.9,313.61Z"/>
<path class="cls-29" d="m85.64 263.42s-8.29-9.14-11.57-7 4 13.4 4 13.4-17 1.68-13 3.85a56.71 56.71 0 0 0 8.53 3.64s-12 18.81-7.43 16.67 13.37-10.28 13.37-10.28-1.76 13.7 1.24 10.81 4.22-10.6 4.22-10.6 11.14 10.8 12 4.62a11.41 11.41 0 0 0-3.62-9.94s15.76-1.24 12.72-4.64-8.28-4.18-8.28-4.18 16.32-14.52 11.11-14-11.23 5-11.23 5 1.54-16.77-1.68-12-10.38 14.65-10.38 14.65z"/>
<path class="cls-30" d="M97.07,248c1.86,0,.68,12.85.68,12.85s6-4.45,11.23-5h.27c4.34,0-11.38,14-11.38,14s5.24.79,8.28,4.18-12.72,4.64-12.72,4.64a11.41,11.41,0,0,1,3.62,9.94c-.2,1.37-.9,1.91-1.88,1.91-3.42,0-10.16-6.53-10.16-6.53s-1.26,7.67-4.25,10.56a1.14,1.14,0,0,1-.74.4c-1.94,0-.5-11.21-.5-11.21s-8.74,8.14-13.37,10.28a1.45,1.45,0,0,1-.6.17c-2.76,0,8-16.84,8-16.84a56.71,56.71,0,0,1-8.53-3.64c-3.94-2.17,13-3.85,13-3.85s-7.28-11.3-4-13.4a2.09,2.09,0,0,1,1.16-.32c3.74,0,10.41,7.36,10.41,7.36s7.22-9.84,10.43-14.62c.4-.59.73-.85,1-.85m0-2.54a3.91,3.91,0,0,0-3.1,2c-2.18,3.24-6.26,8.89-8.61,12.11-2.65-2.56-6.8-6-10.13-6a4.64,4.64,0,0,0-2.53.71A4.32,4.32,0,0,0,70.81,257c-.64,2.93,1.31,7.41,3.07,10.67C62.64,269.15,62.26,271,62,272.38a3.17,3.17,0,0,0,1.86,3.47,53.08,53.08,0,0,0,5.92,2.73C61.31,292.14,62.33,294,63,295.13a2.91,2.91,0,0,0,2.6,1.52,4,4,0,0,0,1.67-.4c2.65-1.23,6.31-4.06,9.24-6.51-.12,5.05.87,6.17,1.25,6.61A3.08,3.08,0,0,0,80,297.41a3.57,3.57,0,0,0,2.5-1.11c1.93-1.87,3.21-5.05,4-7.68,2.58,2.08,6,4.36,8.66,4.36a4.34,4.34,0,0,0,4.39-4.09,13.32,13.32,0,0,0-1.42-8.25c9.38-1.31,10.34-3.7,10.69-4.56a3.6,3.6,0,0,0-.79-3.82,15.06,15.06,0,0,0-5.18-3.6c10.77-10,10-12.14,9.48-13.43a3.13,3.13,0,0,0-3.09-2l-.53,0a23.5,23.5,0,0,0-8.1,2.77c.33-7.82-.85-9.11-1.34-9.65a3,3,0,0,0-2.21-1Z"/>
<path class="cls-31" d="M66.23,274.24c3.54-.61,7.24-1,7.24-1s-.71-1.1-1.58-2.67c-4.39.69-9.13,1.78-6.84,3Z"/>
<path class="cls-31" d="m81.05 266.89 3.42-4.69c-2.38-2.4-7.86-7.44-10.4-5.82-1.06 0.67-1 2.31-0.48 4.21a38.59 38.59 0 0 1 7.46 6.3z"/>
<path class="cls-31" d="m74.93 287.14s-2.61 2.41-5.71 5c1.86-1.28 3.87-2.86 5.64-4.34 0.04-0.43 0.07-0.66 0.07-0.66z"/>
<path class="cls-31" d="M109,255.8c-5.2.55-11.23,5-11.23,5s1.54-16.77-1.68-12c-.75,1.13-1.74,2.54-2.8,4,.63,3.33-.11,11.44-.11,11.44s6-4.46,11.24-5-11.12,14-11.12,14,5.22.79,8.26,4.16c3.29-.73,6-1.85,4.61-3.45-3-3.39-8.29-4.18-8.29-4.18S114.19,255.25,109,255.8Z"/>
<path class="cls-31" d="m88.84 282.06a11.65 11.65 0 0 1 3.7 7.56c2.22 1.13 4.16 1.34 4.51-1.09a10.93 10.93 0 0 0-1.52-7.36c-3.32 0.62-6.69 0.89-6.69 0.89z"/>
<path class="cls-31" d="m80.42 287.39a38.13 38.13 0 0 1-1.35 5.22c0.16 1.8 0.62 2.89 1.69 1.86a12.69 12.69 0 0 0 2.61-4.5c-1.69-1.37-2.95-2.58-2.95-2.58z"/>
<circle class="cls-25" cx="133.68" cy="353.38" r="40.62"/>
<path class="cls-26" d="m133.68 312.77a40.62 40.62 0 1 1-40.61 40.61 40.61 40.61 0 0 1 40.61-40.61m0-5.08a45.7 45.7 0 1 0 45.7 45.69 45.75 45.75 0 0 0-45.7-45.69z"/>
<path class="cls-27" d="m160 322.45a40.58 40.58 0 0 1-63.15 47.9 40.59 40.59 0 1 0 63.15-47.9z"/>
<path class="cls-28" d="m132.41 317.42a40.64 40.64 0 0 1 39.8 48.76 40.61 40.61 0 1 0-78.32-20.93 40.6 40.6 0 0 1 38.52-27.83z"/>
<path class="cls-28" d="m100.68 353.38c-3.59 2.57-1.27 12.7 3.81 14s-0.85-16.11-3.81-14z"/>
<path class="cls-28" d="m115.07 375c6.93 1.93 16.5 12.69 9.31 11s-16.93-13.15-9.31-11z"/>
<path class="cls-29" d="M118.88,322.92s-4.66-11.42-8.47-10.58-.84,14-.84,14-16.5-4.23-13.54-.85a55.87,55.87,0,0,0,6.77,6.35S85,345.35,90.11,344.92s16.07-5.07,16.07-5.07-6.34,12.27-2.54,10.57,7.62-8.46,7.62-8.46,6.77,14,9.73,8.46a11.41,11.41,0,0,0,0-10.57s15.23,4.23,13.54,0-6.35-6.77-6.35-6.77,20.31-8,15.24-9.31-12.27.84-12.27.84,7.19-15.23,2.53-11.84S118.88,322.92,118.88,322.92Z"/>
<path class="cls-30" d="M134.74,312.28c2.23,0-3.59,12.33-3.59,12.33a34.66,34.66,0,0,1,8.53-1.25,15.83,15.83,0,0,1,3.74.41c5.07,1.27-15.24,9.31-15.24,9.31s4.66,2.53,6.35,6.77c.56,1.41-.75,1.88-2.76,1.88-4,0-10.78-1.88-10.78-1.88a11.41,11.41,0,0,1,0,10.57,2,2,0,0,1-1.72,1.29c-3.28,0-8-9.75-8-9.75s-3.81,6.77-7.62,8.46a1.49,1.49,0,0,1-.61.16c-2.4,0,3.15-10.73,3.15-10.73s-11,4.65-16.07,5.07h-.22c-4.32,0,12.91-13.12,12.91-13.12A55.87,55.87,0,0,1,96,325.46c-.85-1-.11-1.31,1.39-1.31,3.73,0,12.15,2.16,12.15,2.16s-3-13.12.84-14a2,2,0,0,1,.42,0c3.72,0,8,10.62,8,10.62s10.15-6.77,14.8-10.15a2.08,2.08,0,0,1,1.06-.49m0-2.54a4.5,4.5,0,0,0-2.55,1c-3.15,2.29-8.92,6.2-12.22,8.42-2-4-5.27-9.37-9.14-9.37h0a4.49,4.49,0,0,0-1,.11,4.3,4.3,0,0,0-2.73,2c-1.61,2.53-1.3,7.43-.77,11.09a50.57,50.57,0,0,0-8.94-1.33h0c-.79,0-3.13,0-4,1.95a3.22,3.22,0,0,0,.72,3.57,50.86,50.86,0,0,0,4.63,4.59C85.65,342,86.32,344,86.81,345.44a3.08,3.08,0,0,0,3.08,2H90l.33,0c2.9-.24,7.31-1.64,10.9-2.94-2,5.15-1.25,6.44-.82,7.15a3,3,0,0,0,2.63,1.46,4,4,0,0,0,1.65-.38c2.44-1.08,4.73-3.63,6.36-5.83,2.17,3.63,5.14,7.33,8.23,7.33a4.43,4.43,0,0,0,4-2.61,13.49,13.49,0,0,0,1.49-8.28,37.75,37.75,0,0,0,7.05.91c1.53,0,3.7-.19,4.84-1.87a3.63,3.63,0,0,0,.28-3.49,15.06,15.06,0,0,0-3.64-5.15c13.76-5.83,13.61-8.11,13.51-9.53a3.21,3.21,0,0,0-2.73-2.91,18,18,0,0,0-4.35-.49,29.35,29.35,0,0,0-4.2.32c3.21-7.76,2.3-9.19,1.78-10a3,3,0,0,0-2.52-1.38Z"/>
<path class="cls-31" d="m96.93 326.44c3.53 0.64 7.14 1.56 7.14 1.56s-0.29-1.27-0.57-3.05c-4.36-0.85-9.19-1.45-7.47 0.51 0.29 0.33 0.59 0.66 0.9 0.98z"/>
<path class="cls-31" d="m113.38 324.61s2.11-1.4 4.81-3.23c-1.42-3.07-4.84-9.69-7.78-9-1.22 0.28-1.74 1.83-1.89 3.79a39.13 39.13 0 0 1 4.86 8.44z"/>
<path class="cls-31" d="m100.68 341.54s-3.27 1.37-7.06 2.7c2.19-0.56 4.61-1.36 6.78-2.15 0.18-0.34 0.28-0.55 0.28-0.55z"/>
<path class="cls-31" d="M143.41,323.77c-5.07-1.27-12.26.84-12.26.84s7.19-15.23,2.53-11.84c-1.09.8-2.51,1.79-4,2.83-.55,3.35-4,10.71-4,10.71s7.19-2.12,12.26-.85-15.23,9.31-15.23,9.31,4.64,2.53,6.34,6.74c3.35.44,6.31.33,5.51-1.66-1.69-4.24-6.35-6.77-6.35-6.77S148.49,325,143.41,323.77Z"/>
<path class="cls-31" d="m115.49 341.54a11.66 11.66 0 0 1 0.89 8.36c1.7 1.83 3.45 2.68 4.61 0.52a11 11 0 0 0 1.09-7.43c-3.33-0.55-6.59-1.45-6.59-1.45z"/>
<path class="cls-31" d="m105.76 343.65a37.86 37.86 0 0 1-3.06 4.45c-0.47 1.75-0.41 2.92 0.94 2.32a12.63 12.63 0 0 0 4-3.33c-1.11-1.87-1.88-3.44-1.88-3.44z"/>
<path class="cls-32" d="m323.53 96.82-39.92 25s0.14 24.19 20.46 46 27.65 25.75 31.83 45.18 6.26 28.77 26 44.29 38.94 31.1 36.82 66.31c0 0 21.76-6.3 41.17-32.78 0 0-4-32.78-28.47-50.45s-24.85-22.74-31.31-46.4c-6.62-24.25-12-28.92-26.35-40.44s-33.05-37.36-30.23-56.71z"/>
<path class="cls-33" d="M323.53,96.82c-2.82,19.35,15.92,45.15,30.27,56.67s19.73,16.19,26.35,40.44c6.46,23.66,6.89,28.72,31.31,46.4s28.47,50.45,28.47,50.45c-19.41,26.48-41.17,32.78-41.17,32.78,2.12-35.21-17-50.78-36.82-66.31s-21.85-24.9-26-44.29-11.52-23.23-31.83-45.07-20.46-46-20.46-46l39.92-25m6.61-10.14-9.31,5.84-39.91,25-2.4,1.5,0,2.83c0,1.07.39,26.43,21.81,49.47,4,4.34,7.58,8,10.68,11.18,12.27,12.64,16.86,17.37,19.91,31.5,4.25,19.68,6.59,30.52,27.87,47.22,19,14.88,36.87,28.93,34.88,62l-.43,7.18,6.91-2c1-.28,23.65-7.1,43.86-34.66l1.19-1.62-.25-2c-.18-1.43-4.61-35.19-30.53-54-21.85-15.81-23-20.06-28.54-40.46l-.85-3.15c-6.83-25-12.55-30.6-28.07-43.07-13.51-10.85-30.91-34.95-28.43-52l1.59-10.87Z"/>
<path class="cls-34" d="m411.46 240.33c-24.42-17.68-24.85-22.74-31.31-46.4-6.62-24.25-12-28.92-26.35-40.44s-33.09-37.32-30.27-56.67l-39.92 25a38.38 38.38 0 0 0 0.33 4.05l35.7-22.38c-2.82 19.34 15.92 45.14 30.27 56.67s19.72 16.18 26.35 40.44c6.46 23.66 6.89 28.72 31.31 46.39 21.37 15.47 27.14 42.5 28.25 49 1.38-1.67 2.75-3.4 4.11-5.26 0 0.05-4.04-32.73-28.47-50.4z"/>
<g class="cls-35">
<path class="cls-36" d="M430.29,319.49c-6.79-36.46-12-48.86-37.17-66.09-21.94-15-26.44-30.65-31.23-47.22-1-3.44-2-6.92-3.17-10.47-5.66-16.93-5.66-16.93-17.47-26.68-2-1.61-4.24-3.48-6.89-5.72-19.66-16.59-33.8-77.4-34.17-79.22l5-1c.09.42,14.16,60.89,32.46,76.34,2.64,2.22,4.9,4.08,6.84,5.69,12.71,10.47,13.06,11,19.07,29,1.2,3.62,2.22,7.17,3.24,10.67,4.71,16.35,8.78,30.47,29.21,44.45,26.3,18,32.11,30.75,39.29,69.34Z"/>
<path class="cls-36" d="M413.75,327.26C407,290.8,401.82,279,376.64,261.8c-21.94-15-26.45-30.65-31.23-47.22-1-3.44-2-6.92-3.18-10.47-5.65-16.93-5.65-16.93-17.47-26.68-2-1.61-4.23-3.48-6.89-5.72-19.65-16.59-32.26-74.34-32.63-76.17l5-1c.08.43,12.63,57.84,30.93,73.29,2.63,2.22,4.89,4.08,6.84,5.69,12.7,10.47,13.06,11,19.06,29,1.21,3.62,2.23,7.17,3.24,10.67,4.71,16.35,8.78,30.47,29.22,44.45,26.3,18,32.05,30.12,39.23,68.71Z"/>
</g>
<g class="cls-35">
<path class="cls-37" d="m341.66 138s6.7 16.41-7.3 25.35-21.27 13.37-32.88 4.16-7.9 4.49-7.9 4.49l26.09 37.28s-0.24-17.81 16.25-26.21 33.5-18.12 44.31-10.76-28.14-39.06-38.57-34.31z"/>
<path class="cls-37" d="m386.69 195.93s2 15.75-10.72 23.83-26.8 22-35.61 15.75-6.58 5-6.58 5l32.22 41.88s-5.29-17.39 6.82-24.78 22.63-26.12 38.65-24.93-17.61-34.81-24.78-36.75z"/>
</g>
<path class="cls-32" d="m350.51 54.41-39.91 25s0.13 24.19 20.45 46 27.65 25.69 31.84 45.07 6.25 28.77 26 44.3 38.93 31.09 36.81 66.3c0 0 21.76-6.3 41.18-32.78 0 0-4.05-32.77-28.47-50.45s-24.86-22.74-31.32-46.39c-6.62-24.26-12-28.92-26.35-40.45s-33.05-37.25-30.23-56.6z"/>
<path class="cls-33" d="M350.51,54.41c-2.82,19.35,15.92,45.15,30.27,56.67s19.73,16.19,26.35,40.45c6.46,23.65,6.89,28.71,31.32,46.39s28.47,50.45,28.47,50.45c-19.42,26.48-41.18,32.78-41.18,32.78,2.12-35.21-17-50.78-36.81-66.3s-21.86-24.91-26-44.29-11.52-23.23-31.84-45.08-20.45-46-20.45-46l39.91-25m6.61-10.14-9.3,5.84-39.92,25-2.4,1.5,0,2.83c0,1.07.39,26.44,21.81,49.47,4.05,4.35,7.58,8,10.68,11.18,12.27,12.64,16.86,17.37,19.91,31.51,4.25,19.68,6.6,30.52,27.87,47.21,19,14.88,36.87,28.93,34.88,62l-.43,7.18,6.91-2c1-.28,23.66-7.1,43.86-34.66l1.19-1.62-.25-2c-.17-1.43-4.61-35.19-30.53-53.94-21.85-15.82-23-20.07-28.53-40.47l-.86-3.15c-6.83-25-12.54-30.6-28.07-43.07-13.51-10.85-30.91-34.95-28.42-52l1.58-10.87Z"/>
<path class="cls-34" d="m438.45 197.92c-24.43-17.68-24.86-22.74-31.32-46.39-6.62-24.26-12-28.92-26.35-40.45s-33.09-37.32-30.27-56.67l-39.91 25a38.38 38.38 0 0 0 0.33 4l35.69-22.38c-2.82 19.35 15.92 45.15 30.27 56.67s19.73 16.19 26.35 40.44c6.46 23.66 6.89 28.72 31.31 46.4 21.38 15.47 27.15 42.5 28.25 49 1.38-1.66 2.75-3.4 4.12-5.26 0 0.09-4.05-32.68-28.47-50.36z"/>
<g class="cls-38">
<path class="cls-36" d="M457.27,277.08c-6.79-36.46-12-48.86-37.16-66.08-21.94-15-26.45-30.66-31.23-47.23-1-3.43-2-6.92-3.18-10.47-5.65-16.93-5.65-16.93-17.47-26.67-2-1.62-4.23-3.49-6.89-5.73-19.65-16.59-33.8-77.4-34.16-79.22l5-1c.08.43,14.16,60.89,32.46,76.34,2.63,2.22,4.89,4.08,6.84,5.69,12.7,10.47,13.06,11,19.06,29,1.21,3.61,2.23,7.17,3.24,10.66,4.71,16.35,8.78,30.47,29.22,44.45,26.3,18,32.1,30.76,39.28,69.34Z"/>
<path class="cls-36" d="M440.73,284.85c-6.79-36.46-11.92-48.23-37.11-65.45-21.94-15-26.45-30.66-31.23-47.23-1-3.43-2-6.92-3.18-10.47-5.65-16.93-5.65-16.93-17.46-26.67-2-1.62-4.24-3.49-6.89-5.73C325.2,112.71,312.59,55,312.22,53.13l5-1c.09.43,12.63,57.84,30.93,73.29,2.64,2.22,4.9,4.08,6.84,5.69,12.71,10.47,13.06,11,19.06,29,1.21,3.61,2.23,7.17,3.24,10.66,4.72,16.35,8.79,30.47,29.22,44.45,26.3,18,32.05,30.12,39.23,68.71Z"/>
</g>
<g class="cls-38">
<path class="cls-37" d="m368.64 95.55s6.71 16.41-7.3 25.35-21.27 13.37-32.87 4.16-7.9 4.49-7.9 4.49l26.08 37.28s-0.23-17.81 16.25-26.21 33.5-18.12 44.31-10.76-28.14-39.01-38.57-34.31z"/>
<path class="cls-37" d="m413.67 153.52s2 15.76-10.72 23.84-26.8 22-35.61 15.75-6.58 5-6.58 5l32.24 41.89s-5.29-17.39 6.82-24.78 22.63-26.12 38.66-24.92-17.64-34.84-24.81-36.78z"/>
</g>
</g>
</g>
</svg>
