<?xml version="1.0" encoding="utf-8"?>
<!-- Uploaded to: SVG Repo, www.svgrepo.com, Generator: SVG Repo Mixer Tools -->
<svg version="1.1" id="Uploaded to svgrepo.com" xmlns="http://www.w3.org/2000/svg" xmlns:xlink="http://www.w3.org/1999/xlink" 
	 width="800px" height="800px" viewBox="0 0 32 32" xml:space="preserve">
<style type="text/css">
	.isometric_vijf{fill:#F29227;}
	.isometric_acht{fill:#F05A28;}
	.isometric_tien{fill:#7BD6C4;}
	.isometric_elf{fill:#72C0AB;}
	.isometric_twaalf{fill:#569080;}
	.st0{fill:#225B49;}
	.st1{fill:#FF7344;}
	.st2{fill:#BE1E2D;}
	.st3{fill:#F5DF89;}
	.st4{fill:#F2D76C;}
	.st5{fill:#F28103;}
	.st6{fill:#F8F7C5;}
	.st7{fill:#AD9A74;}
	.st8{fill:#7BD6C4;}
</style>
<g>
	<path class="isometric_twaalf" d="M15.878,26.674c-3.452,0-5.878-1.399-5.878-3.125c0,0.228,0,1.099,0,1.326
		C10,26.601,12.426,28,15.878,28S22,26.601,22,24.875c0-0.228,0-1.099,0-1.326C22,25.275,19.33,26.674,15.878,26.674z"/>
	<path class="isometric_elf" d="M17.471,20.53l-0.172,0.213l-0.002,2.111c0.005,0.213-0.129,0.426-0.41,0.588
		c-0.553,0.319-1.452,0.318-2.008-0.004c-0.306-0.177-0.447-0.412-0.418-0.642c-0.006-0.021-0.006-1.078-0.004-2l-0.203-0.262
		C11.591,20.892,10,22.104,10,23.549c0,1.726,2.426,3.125,5.878,3.125S22,25.275,22,23.549C22,22.099,20.149,20.883,17.471,20.53z"
		/>
	<path class="isometric_tien" d="M16,4C10.477,4,6,6.224,6,8.986c0,0.785,0.372,1.526,1.018,2.187l7.439,9.624c0,0-0.006,1.979,0,2
		c-0.029,0.23,0.116,0.466,0.422,0.642c0.556,0.321,1.455,0.323,2.008,0.004c0.281-0.162,0.415-0.375,0.41-0.588l0.002-2.111
		l7.798-9.66c0.015-0.02,0.015-0.037,0.027-0.057C25.682,10.403,26,9.713,26,8.986C26,6.224,21.523,4,16,4z M22.807,11.47
		c-1.457,0.962-3.86,1.682-6.807,1.682s-5.35-0.721-6.807-1.682c-0.971-0.641-1.527-1.389-1.527-2.105
		c0-1.791,3.422-3.788,8.333-3.788s8.333,1.996,8.333,3.788C24.333,10.081,23.778,10.828,22.807,11.47z"/>
	<path class="isometric_elf" d="M16,5.577c-4.911,0-8.333,1.996-8.333,3.788c0,0.717,0.555,1.464,1.527,2.105
		c1.457-0.962,3.86-1.682,6.807-1.682s5.35,0.721,6.807,1.682c0.971-0.641,1.527-1.389,1.527-2.105
		C24.333,7.573,20.911,5.577,16,5.577z"/>
	<path class="isometric_acht" d="M9.193,11.47c1.457,0.962,3.86,1.682,6.807,1.682s5.35-0.721,6.807-1.682
		C21.35,10.508,18.946,9.787,16,9.787S10.65,10.508,9.193,11.47z"/>
	<path class="isometric_vijf" d="M11.737,15.193l2.799,3.621c0.658,0.852,1.939,0.865,2.616,0.028l2.905-3.599
		c-1.199,0.285-2.562,0.457-4.056,0.457C14.419,15.701,12.984,15.509,11.737,15.193z"/>
</g>
</svg>