<svg xmlns="http://www.w3.org/2000/svg" viewBox="0 0 25.45 24.27"><defs><style>.cls-1{fill:#9d4b09;}.cls-1,.cls-3,.cls-4{fill-rule:evenodd;}.cls-2,.cls-4{fill:#4d443c;}.cls-3{fill:#f9b916;}</style></defs><title>13_1</title><g id="Layer_2" data-name="Layer 2"><g id="Layer_1-2" data-name="Layer 1"><path class="cls-1" d="M23.91,17.58c1.08.36,1.55,1.85,1.06,3.31s-1.77,2.37-2.84,2S20.57,21,21.07,19.58s1.77-2.37,2.84-2"/><path class="cls-2" d="M24.76,18.9a1.55,1.55,0,0,0-.94-1.06h0a1.55,1.55,0,0,0-1.39.28,3.28,3.28,0,0,0-1.16,3.44,1.55,1.55,0,0,0,.94,1.06h0a1.55,1.55,0,0,0,1.39-.28,3.09,3.09,0,0,0,1.1-1.54h0a3.09,3.09,0,0,0,.06-1.9M24,17.31a2.11,2.11,0,0,1,1.27,1.42A3.65,3.65,0,0,1,25.24,21l0,0a3.66,3.66,0,0,1-1.3,1.81,2.11,2.11,0,0,1-1.87.36l0,0a2.11,2.11,0,0,1-1.27-1.42,3.66,3.66,0,0,1,.06-2.25h0a3.66,3.66,0,0,1,1.31-1.83A2.11,2.11,0,0,1,24,17.3Z"/><path class="cls-2" d="M23.53,18a.28.28,0,1,1,.38.43c-1.09,1-.86,1.52-.65,2s.52,1.26-.59,2.16a.28.28,0,1,1-.36-.44c.78-.63.6-1.05.42-1.5-.29-.7-.6-1.45.8-2.68"/><path class="cls-1" d="M16.78,19.9c.7-.9,2.25-.85,3.48.1s1.65,2.45.95,3.35-2.25.85-3.48-.1-1.65-2.45-.95-3.35"/><path class="cls-2" d="M18.31,19.54a1.55,1.55,0,0,0-1.31.53h0a1.55,1.55,0,0,0-.2,1.4,3.28,3.28,0,0,0,2.86,2.23,1.56,1.56,0,0,0,1.3-.52l0,0a1.56,1.56,0,0,0,.18-1.38,3.09,3.09,0,0,0-1.09-1.54h0a3.08,3.08,0,0,0-1.77-.68m-1.78.2,0,0A2.11,2.11,0,0,1,18.32,19a3.85,3.85,0,0,1,3.4,2.65,2.1,2.1,0,0,1-.3,1.9h0a2.11,2.11,0,0,1-1.77.75,3.85,3.85,0,0,1-3.4-2.65A2.11,2.11,0,0,1,16.53,19.74Z"/><path class="cls-2" d="M17.09,20.41a.29.29,0,0,1,.53-.21c.54,1.35,1.14,1.32,1.71,1.28s1.36-.08,1.85,1.27a.28.28,0,0,1-.54.19c-.34-.94-.79-.92-1.28-.89-.76,0-1.57.09-2.27-1.64"/><path class="cls-3" d="M3,12H16.21v3.47c0,4.07-2.35,6.49-5.27,6.49H8.3C5.38,22,3,19.55,3,15.48Z"/><path class="cls-2" d="M8.8,12.29H3.32v3.19A7,7,0,0,0,4.71,20,4.55,4.55,0,0,0,8.3,21.68h2.64A4.55,4.55,0,0,0,14.54,20a7,7,0,0,0,1.39-4.48V12.29ZM3,11.72H16.21a.29.29,0,0,1,.29.29v3.47A7.57,7.57,0,0,1,15,20.32a5.11,5.11,0,0,1-4,1.93H8.3a5.11,5.11,0,0,1-4-1.93,7.57,7.57,0,0,1-1.52-4.84V12A.29.29,0,0,1,3,11.72Z"/><path class="cls-2" d="M15.67,19.22a.29.29,0,1,1-.27-.5l1-.49c.45-.22.87-.44,1.27-.67a3.12,3.12,0,0,0,1.75-2.12,2,2,0,0,0-.12-1,2.28,2.28,0,0,0-.54-.82,1.33,1.33,0,0,0-1.14-.45,1.37,1.37,0,0,0-.57.27,2,2,0,0,0-.52.77.29.29,0,1,1-.52-.22,2.5,2.5,0,0,1,.69-1,1.92,1.92,0,0,1,.8-.39,1.88,1.88,0,0,1,1.67.59,2.85,2.85,0,0,1,.68,1,2.59,2.59,0,0,1,.15,1.32,3.66,3.66,0,0,1-2,2.53c-.4.23-.84.45-1.3.68l-.95.49"/><path class="cls-3" d="M9.91,23.71H4.15c-.89,0-1.63-1.12-1.72-2.55.34,0,.71-.05,1.13-.05H15.69c.42,0,.79.05,1.13.05-.09,1.43-.83,2.55-1.72,2.55Z"/><path class="cls-2" d="M9.34,23.43H15.1a1.17,1.17,0,0,0,.91-.61,3.3,3.3,0,0,0,.49-1.39h-.22l-.59,0H3.56l-.59,0H2.75a3.3,3.3,0,0,0,.49,1.39,1.17,1.17,0,0,0,.91.61Zm.57.57H4.15a1.72,1.72,0,0,1-1.39-.86,4,4,0,0,1-.61-2,.28.28,0,0,1,.27-.3h0l.48,0,.63,0H15.69l.63,0,.5,0a.28.28,0,0,1,.29.28v0a4,4,0,0,1-.61,2A1.71,1.71,0,0,1,15.1,24Z"/><path class="cls-1" d="M.3,22.08c-.14-1.13,1-2.2,2.53-2.39s2.9.56,3,1.69-1,2.2-2.53,2.39-2.9-.56-3-1.69"/><path class="cls-2" d="M1.13,20.74A1.55,1.55,0,0,0,.58,22v0a1.56,1.56,0,0,0,.85,1.1,3.09,3.09,0,0,0,1.86.32h0A3.08,3.08,0,0,0,5,22.72a1.55,1.55,0,0,0,.55-1.3h0a1.55,1.55,0,0,0-.85-1.13A3.09,3.09,0,0,0,2.86,20a3.08,3.08,0,0,0-1.73.77M0,22.11a2.11,2.11,0,0,1,.72-1.79,3.66,3.66,0,0,1,2.05-.92A3.66,3.66,0,0,1,5,19.79a2.11,2.11,0,0,1,1.14,1.56h0a2.11,2.11,0,0,1-.72,1.79,3.66,3.66,0,0,1-2.05.92h0a3.66,3.66,0,0,1-2.22-.38A2.11,2.11,0,0,1,0,22.11Z"/><path class="cls-2" d="M.88,22.22a.29.29,0,1,1,.22-.52c1.34.57,1.74.12,2.11-.3s.91-1,2.2-.41a.28.28,0,0,1-.24.52c-.91-.43-1.21-.09-1.53.28-.5.57-1,1.18-2.76.45"/><path class="cls-2" d="M8.75,19.1a.29.29,0,0,1,0,.57H8.43a3.39,3.39,0,0,1-2.68-1.28,5,5,0,0,1-1-3.19.29.29,0,0,1,.57,0A4.42,4.42,0,0,0,6.2,18,2.83,2.83,0,0,0,8.43,19.1Z"/><path class="cls-4" d="M12.43,10.22h0a1.33,1.33,0,0,1-1-.46,1.66,1.66,0,0,1-.43-1.11v0h0a1.88,1.88,0,0,1,.38-1.14,1.83,1.83,0,0,1,.93-.67,5.46,5.46,0,0,0-.5.92,2.56,2.56,0,0,0-.2.9A1.92,1.92,0,0,0,12.43,10.22Z"/><path class="cls-2" d="M9.93,2a3.17,3.17,0,0,0-.38-.58,4,4,0,0,1,.21.62,4,4,0,0,1,.1.68c0,.05,0,.11,0,.17A3.78,3.78,0,0,1,9.69,4v0c-.07.21-.15.42-.24.63s-.18.4-.27.6l-.09.2c-.16.36-.33.73-.47,1.12h0a3.76,3.76,0,0,0-.18.65A3.8,3.8,0,0,0,8.38,8h0s0,.09,0,.13a2.54,2.54,0,0,0,.14.72h0a2.55,2.55,0,0,0,.33.64h0v0A3,3,0,0,1,8.73,9a3,3,0,0,1,0-.49c0-.06,0-.12,0-.19s0-.11,0-.17v0a6.29,6.29,0,0,1,.69-1.93l.29-.6h0A7.11,7.11,0,0,0,10,4.87a6.88,6.88,0,0,0,.2-.68h0a3.36,3.36,0,0,0,.06-.37,3.37,3.37,0,0,0,0-.75,3.4,3.4,0,0,0-.06-.36h0A3.14,3.14,0,0,0,9.93,2M8.78,0l.31.2.3.24.15.13L9.7.77h0L10,1v0a3.76,3.76,0,0,1,.76,1.5v0a3.84,3.84,0,0,1,.07,1.29,4,4,0,0,1-.07.43v0a7.51,7.51,0,0,1-.22.73,7.71,7.71,0,0,1-.3.73l-.29.62a5.87,5.87,0,0,0-.64,1.75v0s0,.09,0,.14,0,.1,0,.16a2.39,2.39,0,0,0,.13.78,6.45,6.45,0,0,0,.26.62,6.31,6.31,0,0,0,.32.59.29.29,0,0,1-.39.39,3.86,3.86,0,0,1-.65-.47l0,0a3.89,3.89,0,0,1-.52-.58h0A3.11,3.11,0,0,1,8,9H8a3.11,3.11,0,0,1-.17-.88c0-.05,0-.1,0-.15h0a4.38,4.38,0,0,1,.27-1.51c.14-.42.32-.81.49-1.18l.09-.19V5c.09-.18.18-.37.26-.57s.16-.39.23-.6h0a3.1,3.1,0,0,0,.15-1s0-.09,0-.13A3.41,3.41,0,0,0,9,1.65H9c-.09-.2-.19-.41-.3-.61S8.5.64,8.39.45A.29.29,0,0,1,8.68,0h0Z"/></g></g></svg>